<?xml version="1.0" encoding="UTF-8"?>
<svg id="Layer_2" data-name="Layer 2" xmlns="http://www.w3.org/2000/svg" viewBox="0 0 220.19 227.5">
  <defs>
    <style>
      .cls-1, .cls-2, .cls-3 {
        fill-rule: evenodd;
      }

      .cls-1, .cls-4 {
        fill: #fff;
      }

      .cls-5, .cls-3 {
        fill: #1faea1;
      }

      .cls-2, .cls-6 {
        stroke: #000;
        stroke-miterlimit: 10;
        stroke-width: .81px;
      }

      .cls-7 {
        fill: #202020;
      }
    </style>
  </defs>
  <g id="Layer_1-2" data-name="Layer 1">
    <g>
      <g>
        <path class="cls-4" d="M186.74,54.1s0-.03,0-.04c-1.03-3.2-11.44-18.62-11.44-18.62l-.67,9.97c-39.39-12.57-77.86-23.28-114.88-28.9-5.11-.78-10.35,2.77-11.74,7.77-14.8,53.83-29.05,106.24-36.95,155.52l-9.26-5.63s7.96,15.22,11.48,17.9c0,0,.02.01.03.02,1.51,1.59,3.49,2.89,5.74,3.62,40.76,13.11,80.55,24.34,118.8,30.15,5.11.78,10.35-2.77,11.74-7.77,15.25-55.45,29.92-109.42,37.66-159.98.2-1.32,0-2.68-.5-4Z"/>
        <g>
          <path class="cls-5" d="M.08,167.86c-.7,4.54,3.25,9.67,8.7,11.44,40.76,13.11,80.55,24.34,118.8,30.15,5.11.78,10.35-2.77,11.74-7.77,15.25-55.45,29.92-109.42,37.66-159.98.7-4.54-3.25-9.67-8.7-11.44C127.52,17.15,87.73,5.91,49.49.11c-5.11-.78-10.35,2.77-11.74,7.77C22.5,63.33,7.82,117.29.08,167.86Z"/>
          <path class="cls-4" d="M17.4,146.87c-.51,3.44,2.83,7.26,7.37,8.52,33.93,9.31,67.02,17.12,98.84,21.08,4.25.53,8.55-2.22,9.64-6.02,11.93-42.19,23.64-83.27,29.33-121.57.51-3.44-2.83-7.26-7.37-8.52-33.92-9.31-67.02-17.12-98.83-21.07-4.25-.53-8.55,2.22-9.64,6.02-11.93,42.19-23.64,83.27-29.32,121.56Z"/>
        </g>
        <path class="cls-6" d="M81,184c-1.08,3.45-4.07,3.56-6.96,2.84-2.46-.62-4.93-1.24-7.4-1.86-2.34-.59-4.68-1.18-7.02-1.76-2.97-.74-5.08-2.71-4.24-6.07,1.5-5.97,10.59-1.92,14.36-.98,2.34.59,4.68,1.18,7.01,1.76,2.98.75,5.09,2.71,4.24,6.07-.37,1.45,1.88,2.07,2.24.62.96-3.82-.92-7.69-4.89-8.69-2.66-.67-5.33-1.34-8-2.01-2.88-.73-5.77-1.45-8.66-2.17-3.84-.96-7.37.99-8.56,4.78-1.18,3.76,1.08,7.74,4.89,8.69,2.67.67,5.33,1.34,8,2.01,2.89.72,5.77,1.45,8.66,2.17,3.84.96,7.38-.99,8.56-4.78.45-1.44-1.8-2.04-2.24-.62Z"/>
        <g>
          <path class="cls-3" d="M68.57,54.88c1.31-5.25,5.14-6.08,8.51-1.84l10.92,13.75c3.36,4.24,10.53,7.4,15.93,7.03l17.51-1.2c5.4-.37,7.37,3.02,4.39,7.53l-9.7,14.63c-2.99,4.51-3.78,12.3-1.76,17.32l6.55,16.29c2.02,5.02-.59,7.94-5.8,6.49l-16.91-4.7c-5.21-1.45-12.87.2-17.02,3.68l-13.46,11.27c-4.15,3.47-7.74,1.89-7.97-3.51l-.75-17.54c-.23-5.4-4.18-12.18-8.76-15.05l-14.87-9.32c-4.58-2.87-4.19-6.77.88-8.66l16.45-6.14c5.07-1.89,10.3-7.73,11.61-12.98l4.27-17.03Z"/>
          <path class="cls-1" d="M116.51,131.03c-1.83-4.7-3.91-9.3-5.61-14.05-.46-1.28,1.55-1.89,2.01-.62,1.7,4.75,3.78,9.35,5.61,14.05.49,1.26-1.52,1.88-2.01.62Z"/>
          <path class="cls-1" d="M109.31,112.67c-.19-.52-.37-1.02-.66-1.49-.3-.49-.17-1.14.33-1.45.47-.3,1.15-.16,1.45.32.38.63.65,1.31.9,2,.2.54-.17,1.15-.7,1.32-.56.17-1.12-.16-1.32-.7Z"/>
          <path class="cls-1" d="M73.42,55.85c-1.32,4.87-2.38,9.8-3.83,14.63-.39,1.3-2.37.6-1.99-.7,1.45-4.83,2.51-9.76,3.83-14.63.36-1.31,2.34-.61,1.99.7Z"/>
          <path class="cls-1" d="M68.3,74.89c-.16.53-.31,1.04-.35,1.59-.05.57-.54,1.02-1.12.97-.56-.04-1.03-.55-.98-1.12.06-.73.26-1.44.47-2.15.16-.55.83-.83,1.35-.64.56.2.8.79.64,1.34Z"/>
        </g>
        <path class="cls-1" d="M126.98,191.77c-3.25,3.92-11,2.09-15.31,1.37-2.83-.47-4.04,3.85-1.19,4.32,5.94.99,15.2,2.86,19.67-2.52,1.84-2.21-1.32-5.4-3.17-3.17Z"/>
        <path class="cls-1" d="M102.25,191.79c-.88-.28-1.78-.45-2.69-.6-1.2-.2-2.41.3-2.76,1.57-.3,1.09.36,2.56,1.56,2.76.91.15,1.81.31,2.69.6,1.16.37,2.45-.43,2.76-1.57.34-1.22-.4-2.38-1.57-2.76Z"/>
        <path class="cls-1" d="M100.02,57.72c-2.89,0-2.89,4.48,0,4.48s2.89-4.48,0-4.48Z"/>
        <path class="cls-2" d="M89.83,150.52c-2.89,0-2.89,4.48,0,4.48s2.89-4.48,0-4.48Z"/>
        <path class="cls-2" d="M129.39,91.02c-2.89,0-2.89,4.49,0,4.49s2.89-4.49,0-4.49Z"/>
        <path class="cls-2" d="M101.35,38.32c-2.89,0-2.89,4.49,0,4.49s2.89-4.49,0-4.49Z"/>
        <path class="cls-2" d="M58.62,40.56c-2.89,0-2.89,4.49,0,4.49s2.89-4.49,0-4.49Z"/>
        <g>
          <g>
            <path class="cls-1" d="M124.3,118.81c-1.09,0-2.09-.57-2.67-1.52-.64-1.05-.87-3.12,1.11-4.5.67-.55,1.29-.98,1.9-1.39.4-.28.77-.54,1.14-.81l1.97-1.43c.06-.04.11-.09.17-.13.18-.15.43-.35.75-.54.02-.01.03-.03.05-.04,1.2-.91,2.41-1.81,3.62-2.71.35-.3.71-.47,1.03-.58.02,0,71.38-26.67,71.38-26.67l1.05.52c.55.27,1,.7,1.33,1.24.41.72.78,1.45,1.14,2.27.09.2.16.39.2.58l.09.16.43,1.12c.15.38.31.79.46,1.24.53,1.01.78,1.99.77,2.98l-.02,1.61-1.24.78c-.2.14-.41.26-.64.34l-69.93,26.21c-.36.19-.81.33-1.37.33-.78.06-1.56.12-2.33.18l-1.31.1c-.96.07-1.92.14-2.87.22-.35.03-.69.06-1.04.09l-.66.06s-3.91.26-4.02.27c-.11.02-.28.04-.49.04Z"/>
            <path class="cls-1" d="M205.83,89.82c-.45-.73-.68-1.46-.83-2.09l-2.15.55.99-3.74c-.03-.06-.06-.13-.1-.19,0,0-.09-.15-.12-.22-.36-.43-.85-1.14-1.06-2.12l-.57-2.58,11-3.73c.34-.11.69-.16,1.04-.16.61,0,1.54.17,2.45.97,1.08.95,1.92,2.3,2.56,4.12.14.39.27.81.37,1.22.15.63.3,1.31.3,2.09,0,2.96-1.88,3.89-2.63,4.15l-10.08,3.67-1.19-1.95Z"/>
          </g>
          <path class="cls-3" d="M204.69,89.47s-1.2-3.87-2.58-6.4l-1.67-3.05,5.9-2.09,1.23,1.56c.2.25,2.01,2.65,3.4,7.99l.66,2.54-6.04,2.37-.89-2.92Z"/>
        </g>
        <path class="cls-7" d="M218.66,88.1c-.04.06-.06.08-.16.12-.34.16-.81.26-1.18.08-.38-.17-.64-.64-.74-1.39,0-.03,0-.14.02-.19,0-.03.2-.31.45-.81.25-.5.51-1.26.62-2.2l.02-.18.02-.15c.02-.34.02-.69,0-1.03-.1-1.38-.64-2.73-1.58-3.7-1.82-2.16-5.21-1.34-8.47-.19-3.41,1.14-6.77,2.47-10.27,3.73-3.5,1.32-7.07,2.66-10.69,4.03-14.51,5.47-29.94,11.28-45.34,17.09l-5.77,2.18-2.88,1.09c-.29.08-.75.38-1.15.63-.41.26-.83.54-1.24.82-.84.58-1.62,1.14-2.47,1.77-.84.61-1.65,1.19-2.43,1.79-.77.61-1.51,1.23-2.14,1.9-.63.66-1.16,1.39-1.35,2.03-.18.63-.07,1.04.42,1.58.09.12.34.31.28.27.08.03.33.17.51.22.38.15.79.25,1.22.32,1.72.28,3.65,0,5.67-.14,1.94-.15,3.93-.31,5.73-.64.91-.18,1.76-.4,2.59-.73.9-.34,1.8-.68,2.7-1.02,14.42-5.43,27.85-10.48,39.37-14.81,9.75-3.67,16.23-6.11,16.23-6.11,0,0,3.63-1.09,6.25-1.67,4.4-1.09,2.9.06.39,1.32.29-.05-6.08,2.79-6.08,2.79,0,0-7.51,2.83-18.8,7.08-11.34,4.27-24.58,9.25-38.78,14.59-1.87.8-3.96,1.16-5.89,1.37-.99.11-1.92.2-2.94.28-.96.06-1.9.16-2.91.23-1.99.13-4.23.23-6.48-.91-.22-.07-.41-.32-.51-.38-.12-.1-.23-.2-.34-.33-.22-.23-.43-.5-.62-.79-.37-.59-.6-1.35-.58-2.09.06-1.49.79-2.57,1.47-3.44,1.43-1.73,3.13-2.95,4.76-4.15l2.45-1.78c.84-.59,1.67-1.18,2.59-1.74.24-.14.45-.27.75-.42.26-.12.3-.12.44-.18l.35-.13,1.42-.54,2.84-1.07,5.7-2.15c15.2-5.73,30.42-11.47,44.74-16.86,7.14-2.68,14.1-5.37,20.78-7.66,1.71-.56,3.53-1.08,5.53-1.01.5.02,1,.09,1.5.2.26.07.52.14.77.23l.71.35c.89.51,1.7,1.14,2.29,1.94,1.22,1.57,1.76,3.49,1.76,5.32,0,.23.01.46-.02.69v.12s-.02.12-.02.12l-.02.24c-.15,1.25-.51,2.27-.84,2.95-.34.68-.6,1.06-.62,1.11Z"/>
      </g>
      <path class="cls-7" d="M1.63,177.18c-.02-.06-.03-.08-.01-.17.09-.65.58-1.74,2.1-1,.03.01.14.09.17.13l1.72,3.75,2.04,4.42.51,1.11.51,1.03c.36.67.76,1.33,1.18,1.97,1.72,2.53,4.01,4.67,6.66,6.21,1.32.77,2.73,1.39,4.19,1.85,1.42.43,3.09.79,4.64,1.18l9.46,2.31,37.83,9.24,59.98,14.65s3.62,1.15,6.1,2.14c4.25,1.58,2.37,1.69-.41,1.32.27.12-6.6-1.13-6.6-1.13l-60.93-14.88-37.2-9.09-9.3-2.27c-1.54-.39-3.09-.7-4.73-1.24-1.6-.53-3.14-1.24-4.58-2.11-2.89-1.74-5.39-4.12-7.26-6.93-.94-1.37-1.71-2.97-2.34-4.39l-2-4.35-1.73-3.75Z"/>
      <path class="cls-7" d="M134.17,209.13c-.03-.05-.04-.07-.03-.17.03-.65.42-1.79,2-1.19.03.01.15.07.18.12l2.05,3.58,4.48,7.81,1.12,1.95.56.98c.23.4.29.48.4.6.22.2.58.27.91.17.33-.12.51-.3.63-.71l4.57-17.42,9.14-34.84,14.53-55.4s1.21-3.6,2.25-6.07c1.65-4.22,1.73-2.34,1.31.43.13-.27-1.24,6.58-1.24,6.58l-14.75,56.26-8.98,34.26-4.55,17.24c-.38,1.09-1.42,1.96-2.55,2.14-1.11.23-2.39-.15-3.16-1.04-.2-.2-.36-.48-.48-.67l-.27-.48-.55-.96-1.1-1.92-4.41-7.68-2.05-3.58Z"/>
      <path class="cls-7" d="M184.19,83.01c-.01.06-.02.08-.09.15-.44.48-1.47,1.1-2.3-.37-.02-.03-.07-.15-.07-.21l.71-4.06,2.95-16.97.37-2.12.18-1.06.09-.52c.02-.14.04-.29.06-.44.1-1.17-.18-2.36-.79-3.38l-3.52-5.86s-1.73-3.38-2.77-5.84c-1.87-4.13-.47-2.87,1.22-.63-.1-.28,3.84,5.48,3.84,5.48l3.6,6.02c.78,1.48,1.08,3.2.85,4.85l-.73,4.21-2.9,16.68-.71,4.07Z"/>
    </g>
  </g>
</svg>