<?xml version="1.0" encoding="UTF-8"?>
<svg id="Layer_2" data-name="Layer 2" xmlns="http://www.w3.org/2000/svg" viewBox="0 0 242.88 268.51">
  <defs>
    <style>
      .cls-1, .cls-2, .cls-3, .cls-4 {
        fill-rule: evenodd;
      }

      .cls-1, .cls-5 {
        fill: #fff;
      }

      .cls-2 {
        stroke-miterlimit: 10;
        stroke-width: .88px;
      }

      .cls-2, .cls-6 {
        stroke: #000;
      }

      .cls-6 {
        stroke-linecap: round;
        stroke-linejoin: round;
      }

      .cls-7 {
        fill: #212121;
      }

      .cls-4 {
        fill: #1faea1;
      }
    </style>
  </defs>
  <g id="Layer_1-2" data-name="Layer 1">
    <g>
      <g>
        <g>
          <g>
            <polygon class="cls-4" points="79.67 268.51 101.02 268.51 106.69 207.23 85.47 205.88 79.67 268.51"/>
            <polygon class="cls-4" points="153.05 185.97 135.89 195.08 179.99 268.51 202.62 268.51 153.05 185.97"/>
            <path class="cls-4" d="M61.37,36.4c1.92,2.58,1.38,6.23-1.2,8.14h0c-2.58,1.92-6.23,1.38-8.14-1.2l-16.25-21.88c-1.92-2.59-1.38-6.23,1.2-8.15h0c2.58-1.91,6.23-1.38,8.15,1.2l16.25,21.88Z"/>
            <path class="cls-4" d="M96.04,29.97c-.99,3.06.69,6.34,3.75,7.33h0c3.06.99,6.34-.69,7.33-3.74l8.38-25.94c.99-3.06-.69-6.34-3.75-7.33h0c-3.06-.99-6.34.69-7.33,3.75l-8.38,25.93Z"/>
            <path class="cls-1" d="M182.11,197.3c3.97-5.32,6.26-11.87,9.01-20.12l-9.15.21c-6.86-47.94-17.51-95.06-31.95-141.38-.89-2.83-4.14-4.91-7.22-4.62-45,4.36-88.95,13.57-131.86,27.64l-2.97-6.87c-3.52,4.81-5.97,8.19-7.12,12.34-1.49,5.35-.6,9.83-.3,11.64,3.54,21.3-.63,33.53,7.56,71.79,6.27,29.28,8.74,22.24,12.12,43.15,2.16,13.39,2.98,27.59,13.91,36.96,3.02,2.59,5.67,4.77,7.22,4.62,28.29-2.69,56.38-7.46,84.02-14.08,13.77-3.3,28.09-4.56,41.28-9.99,7.32-3.01,12.01-6.68,15.45-11.28Z"/>
            <path class="cls-5" d="M192.96,187.74c.38,3.03-1.71,6.34-4.64,7.35-44.93,15.44-91.05,25.38-138.36,29.8-3.09.29-6.35-1.87-7.26-4.79C26.1,166.43,14.32,111.71,7.36,55.96c-.37-3.03,1.71-6.34,4.64-7.35,44.93-15.44,91.05-25.37,138.36-29.8,3.09-.29,6.35,1.87,7.26,4.79,16.6,53.67,28.39,108.39,35.35,164.14Z"/>
            <path class="cls-4" d="M166.78,154.57c-5.79-5.73-23.37-2.45-28.16-8.24-7.75-12.74,13.1-21.35,16.96-29.8,9.71-24.18-42.12-8.32-45.24-23.38-1.77-8.53,28.53-18.35,20.92-30.08-5.07-7.82-26.36-2.75-34.27-1.68-16.68,2.25-68.63,14.36-49.39,26.96,3.54,2.32,13.28,8.39,13.47,13.38.16,3.91-5.16,6.25-7.9,7.84-7.59,4.44-19.2,7.35-21.63,17.14-6.66,26.76,34.96,5.65,42.23,15.5,3.35,4.54-4.35,10.03-7.37,12.35-6.46,4.97-13.23,9.2-16.1,17.32-2.5,7.06-2.13,14.04,4.96,17.73,9.06,4.73,20.5,4.6,30.01,3.82,21.06-1.75,42.12-6.85,61.94-13.22,9.84-3.16,34.25-11.12,19.57-25.64Z"/>
            <path class="cls-1" d="M242.44,127.4c-16.17-7.3-37.04-12.89-47.91-17.78-28.7-13.6-44-12.63-72.12-1.59l7.31-2.93c-5.99,1.37,18.52-2.71,18.77,3.95.08,15.09-11.36,11.98-2.93,12.16,14.87.8,32.23,10.69,44.7,17.5,14.24,7.24,23.63,18.95,36.76,26.86,3.91,2.37,9.59,5.04,15.42,7.23v-45.4Z"/>
            <g>
              <path class="cls-1" d="M140.58,102.47c-.83-.77-1.83-1.03-2.86-.96,4.61-4.41,5.05-12.33-2.47-13.93-3.09-.61-6.23-1.6-9.28-1.84-3.9-.28-4.77,3.5-5.38,6.6-.68,3.45-.96,6.73-1.03,10.18-.28,3.9-.79,7.75-.21,11.7l.96,1.43c.9,2.01,3.02,1.63,4.52.7l.21.35c-.55,1.5,1.03,2.31,2.29,2.18,2-.1,2.35-1.88,3.01-3.36.95-2.28,2.37-5.09,4.41-6.67,1.35-1.21,9.15-3.13,5.83-6.38Z"/>
              <path d="M128.54,87.97s.02,0,.02,0h-.02Z"/>
              <path class="cls-1" d="M175.73,109.7c0-1.98-.09-3.94-.25-5.87-3.47-.63-6.86-1.45-10.06-2.62-6.42-2.51-10.34-7.73-15.72-11.76-6.29-4.46-9.75-1.93-16.45-.54-5.66,1.1-15.41-3.3-19.4,1.85-2.71,3.67-.79,10.22-1.11,14.36-.28,3.9-2.78,11.56,3.82,8.17,4.13-2.15,3.88-8.38,4.73-12.66l.76-.1c.47.09,1.19.24,1.9.38,2.62.52,5.51-.39,7.84.32,3.28.9,3.15,4.09,4.82,6.89,2.2,3.89,3.77,5.94-1.41,8.37-2.71,1.19-4.95,1.25-7.66-.03-2.66-1.52-3.86-4.22-7.33-4.17-5.23.2-3.94,4.91-1.88,8.28,3.48,4.89,9.91,7.4,15.61,8.53,6.19,1.22,10.18,1.02,16.22-.75,4.51-1.58,11.78-4.59,16.44-4.41,2.95.09,6.09,2.04,9.12,3.29v-17.53Z"/>
              <path class="cls-2" d="M111.36,124.48c-1.33,1.24-3.63.85-5.12-.86h0c-1.5-1.71-1.57-4.04-.16-5.19,21.47-17.82,42.93-35.63,64.4-53.44,1.41-1.16,3.07-1.49,3.72-.75h0c.65.74.09,2.34-1.24,3.59-20.53,18.89-41.06,37.77-61.59,56.66Z"/>
              <path class="cls-1" d="M135.02,116.59c-2.71,1.2-4.94,1.25-7.66-.03-2.67-1.52-3.86-4.22-7.33-4.17-5.23.2-3.94,4.91-1.89,8.28,3.48,4.89,9.9,7.4,15.61,8.52,6.19,1.22,10.18,1.03,16.21-.74"/>
              <path class="cls-1" d="M105.6,118.05c-9.98-1.35-11.27,9.42-14.14,16,4.57,2.15,11.73,1.56,15.79-1.5,2.8-2.08,5.23-4.92,4.98-7.39-.29-2.84-3.66-5.3-6.62-7.11Z"/>
              <path class="cls-1" d="M132.96,88.97c-5.66,1.11-15.42-3.3-19.4,1.85-2.7,3.67-.79,10.22-1.11,14.36-.28,3.9-2.78,11.56,3.82,8.17,4.13-2.15,3.88-8.38,4.73-12.66l.76-.1c.48.1,1.19.24,1.9.38"/>
              <path class="cls-3" d="M118.32,112.42c-3.19-.76-2.37,6.57-.39,7.88.52-1.38,3.69-7.11.39-7.88Z"/>
            </g>
            <path class="cls-4" d="M207.2,196.15c.53,1.94-1.39,4.19-4.23,5.03-55.45,16.55-117.97,30.66-170.19,36.17-2.65.29-5.18-1.23-5.6-3.36-.89-4.59-1.52-9.14-1.86-13.65-.17-2.09,2.09-4,4.97-4.3,56.45-5.64,117.62-20.15,166.95-34.66,2.51-.73,5.16.26,5.91,2.2,1.57,4.19,2.94,8.37,4.05,12.56Z"/>
            <path class="cls-2" d="M242.44,117.92c-11.95-4.02-37.24-14.16-64.76-15.07,0,0-3.58,10.24-3.21,27.5.04,1.9,7.43,6.41,8.94,7.52,3.13,2.29,6.42,4.35,9.67,6.46,16.36,10.61,31.81,21.67,49.36,29.09v-55.5Z"/>
            <path class="cls-3" d="M236.14,117.87c-6.85-3.16-14.14-5.58-21.66-6.42-2.93-.33-3.29,4.23-.37,4.56,7.12.8,13.98,3.17,20.46,6.16,2.69,1.24,4.22-3.07,1.57-4.3Z"/>
            <path class="cls-3" d="M207.4,109.27l-1.13-.19c-1.23-.2-2.43.65-2.63,1.89-.2,1.23.65,2.43,1.88,2.63l1.13.18c1.23.2,2.43-.66,2.63-1.89.21-1.23-.65-2.43-1.88-2.63Z"/>
            <path class="cls-1" d="M72.38,88.94c-3.15,0-3.15,4.88,0,4.88s3.15-4.88,0-4.88Z"/>
            <path class="cls-3" d="M137.17,157.87c-3.15,0-3.15,4.88,0,4.88s3.15-4.88,0-4.88Z"/>
            <path class="cls-1" d="M108.5,171.35c-3.15,0-3.15,4.88,0,4.88s3.15-4.88,0-4.88Z"/>
            <path class="cls-1" d="M66.99,119.39c-3.15,0-3.15,4.88,0,4.88s3.15-4.88,0-4.88Z"/>
            <path class="cls-3" d="M82.41,160.31c-3.15,0-3.15,4.88,0,4.88s3.15-4.88,0-4.88Z"/>
            <path class="cls-3" d="M93.93,102.85c-3.15,0-3.15,4.88,0,4.88s3.15-4.88,0-4.88Z"/>
            <path class="cls-3" d="M105.06,76.76c-3.15,0-3.15,4.88,0,4.88s3.15-4.88,0-4.88Z"/>
            <g>
              <path class="cls-6" d="M183.03,173.92c-1.39.22-2.26-.56-2.95-1.18-.73-.66-1.22-1.05-2.06-.92-.84.13-1.19.66-1.67,1.52-.46.81-1.04,1.82-2.44,2.04-1.39.22-2.26-.56-2.95-1.19-.73-.66-1.22-1.05-2.06-.92-.84.13-1.18.66-1.67,1.51-.46.81-1.04,1.82-2.43,2.04-1.39.22-2.25-.56-2.95-1.19-.73-.66-1.22-1.05-2.06-.92-.29.05-.57-.15-.62-.45s.15-.57.45-.62c1.39-.22,2.25.56,2.95,1.18.73.66,1.22,1.05,2.06.92.84-.13,1.18-.66,1.67-1.51.46-.81,1.04-1.82,2.43-2.04,1.39-.22,2.25.56,2.95,1.18.73.66,1.22,1.05,2.06.92s1.19-.66,1.67-1.52c.46-.81,1.04-1.82,2.44-2.04s2.26.56,2.95,1.18c.73.66,1.22,1.05,2.06.92.29-.05.57.15.62.45s-.15.57-.45.62Z"/>
              <path class="cls-6" d="M48.32,64.45c-1.39.22-2.26-.56-2.95-1.18-.73-.66-1.22-1.05-2.06-.92s-1.19.66-1.67,1.52c-.46.81-1.04,1.82-2.44,2.04s-2.26-.56-2.95-1.19c-.73-.66-1.22-1.05-2.06-.92s-1.18.66-1.67,1.51c-.46.81-1.04,1.82-2.43,2.04-1.39.22-2.25-.56-2.95-1.19-.73-.66-1.22-1.05-2.06-.92-.29.05-.57-.15-.62-.45s.15-.57.45-.62c1.39-.22,2.25.56,2.95,1.18.73.66,1.22,1.05,2.06.92s1.18-.66,1.67-1.51c.46-.81,1.04-1.82,2.43-2.04,1.39-.22,2.25.56,2.95,1.18.73.66,1.22,1.05,2.06.92.84-.13,1.19-.66,1.67-1.52.46-.81,1.04-1.82,2.44-2.04,1.39-.22,2.26.56,2.95,1.18.73.66,1.22,1.05,2.06.92.29-.05.57.15.62.45s-.15.57-.45.62Z"/>
            </g>
          </g>
          <path d="M82.36,230.66c-.56,0-.91-.23-1.03-.67-.07-.25,0-.62.18-.88.06-.1.2-.27.38-.29,7.67-1.11,15.23-3.1,22.46-5.91.05-.02.11-.03.17-.03.37,0,.82.37.93.74.17.62-.31,1.04-.77,1.22-7.09,2.75-14.5,4.7-22.02,5.79-.1.01-.19.02-.29.02h0Z"/>
          <path d="M145.55,217.25c-.31,0-.84-.09-1.01-.68-.07-.25,0-.59.16-.85.07-.11.21-.29.42-.33,8.89-1.53,17.65-3.97,26.05-7.24.05-.02.11-.03.17-.03.37,0,.82.37.93.74.17.62-.31,1.05-.77,1.23-8.28,3.22-16.91,5.62-25.67,7.13-.09.02-.19.02-.28.02Z"/>
        </g>
        <path d="M173.18,132.76c-.12,0-.25,0-.38-.02-1.63-1.65-3.37-3.1-5.16-4.3-.94-.63-1.94-1.23-2.96-1.76-1.2-.62-2.2-1.03-3.05-1.23-.52-.12-1.01-.18-1.5-.18s-.99.06-1.52.18c-.94.21-1.94.61-3.15,1.15-1.05.49-2.32.97-3.43,1.39-1.16.37-2.35.75-3.53.99-2.49.56-4.96.85-7.37.87h-.14c-5.03,0-9.97-1-14.29-2.89-2.51-1.09-4.62-2.29-6.45-3.65-.99-.7-2.01-1.5-2.9-2.63-.48-.62-.81-1.22-1.05-1.88-.16-.47-.27-.96-.31-1.45l-.06-.79-.78-.12c-.2-.03-.39-.07-.58-.13-.74-.22-1.45-.66-2.01-1.24-1.11-1.17-1.57-2.47-1.91-3.7-.16-.6-.27-1.25-.34-1.91-.06-.62-.12-1.23-.14-1.86-.06-1.23-.04-2.48.04-3.73.19-2.54.66-4.99,1.39-7.29.37-1.18.82-2.35,1.33-3.48.47-1.02,1.06-2.23,1.87-3.32.95-1.29,1.93-2.16,3.08-2.73.65-.32,1.4-.53,2.13-.59.18-.02.36-.02.53-.02.5,0,1.02.06,1.59.18.94.21,1.75.5,2.52.78.36.13.69.25,1.02.36.98.34,1.94.51,3.17.56.16,0,.31,0,.46,0,2,0,4.09-.47,6.3-.97l.53-.12c2.1-.47,4.27-.96,6.62-.96h.39c.59,0,1.34.09,1.86.23.71.17,1.31.41,1.9.64,1.11.47,2.12,1,3.3,1.66,1.6.9,3.17,1.83,4.68,2.74l1.53.91c2.3,1.36,4.3,2.61,6.12,3.83l1.95,1.3.87.57c.64.41,1.2.75,1.74,1.03,0,0,.33.21.83.5.51.29,1.34.71,2.4,1.12,1.89.77,4.58,1.43,7,1.72.6.06,1.14.1,1.61.13-.51.11-1.09.21-1.72.29l-.02,1.98-.85-.96.75-.99c-.14.03-.92.1-2.05.1-.87,0-2.2-.05-3.58-.27-1.47-.23-3-.62-4.19-1.07-1.11-.42-1.81-.79-1.82-.8-.65-.36-1.27-.77-1.82-1.13l-2.27-1.51c-.97-.65-1.95-1.28-2.93-1.9-1.38-.87-2.82-1.72-4.25-2.57l-2.47-1.47c-1.76-1.04-3.59-2.12-5.34-2.91-1.2-.54-2.17-.82-2.97-.85-.19,0-.39-.01-.59-.01-.79,0-1.67.07-2.68.21-1.26.18-2.52.47-3.86.77-.97.22-1.97.45-3.01.64-1.15.21-2.39.4-3.68.42h-.31c-1.21,0-2.4-.14-3.53-.44-.71-.2-1.36-.43-1.99-.66-.49-.18-.95-.34-1.37-.47-.72-.22-1.33-.33-1.87-.33-.34,0-.66.04-.96.13-2.08.47-3.64,3.38-4.06,4.26-1.02,2.07-1.78,4.21-2.27,6.36-.5,2.14-.75,4.4-.75,6.71,0,1.07.08,2.23.21,3.35.16,1.16.48,2.21.91,2.96.24.43.53.8.82,1.06.32.27.63.43,1.01.51.08.03.25.05.41.05.47,0,.98-.17,1.47-.51l.08-.06c.07-.06.14-.12.22-.17,1.45-1.17,1.91-3.41,2.4-5.78.26-1.15.59-2.39,1.26-3.62.38-.68.79-1.23,1.26-1.68.51-.5,1.15-.93,1.81-1.22.93-.4,1.94-.6,3.09-.6.32,0,.64.02.95.04,1.2.11,2.38.39,3.73.9,2.54.97,4.66,2.53,6.13,4.51.41.55.77,1.14,1.03,1.68.28.58.51,1.18.72,1.82.43,1.44.6,2.69.52,3.9-.07,1.49-.66,2.95-1.58,3.93-.46.5-1.04.93-1.79,1.3-.59.27-1.24.48-1.97.61-.61.1-1.24.15-1.89.15s-1.29-.05-1.99-.15c-.54-.08-1.2-.2-1.93-.45-.54-.18-1.19-.5-1.79-.86l-.12-.07c-.51-.31-.92-.55-1.35-.77-.43-.22-.91-.43-1.48-.64-.49-.18-1.09-.38-1.63-.55-.56-.18-1.1-.34-1.61-.47-.4-.1-.98-.21-1.49-.23-.05,0-.1,0-.14,0l-.52-.3-.55.78-.03.06c-.1.16-.16.32-.21.49-.11.39-.12.83-.05,1.25.09.48.22.84.45,1.24.21.37.51.76.9,1.16.72.76,1.76,1.49,2.58,2.05,2.05,1.39,4.01,2.44,5.98,3.21,2.08.83,4.27,1.46,6.51,1.88,1.95.35,3.98.52,6.05.52.24,0,.49,0,.73,0,2.19-.03,4.46-.33,6.74-.87.52-.12,1.09-.25,1.67-.45.17-.06.35-.11.53-.16.37-.11.74-.22,1.09-.36l1.51-.58,1.63-.71c1.14-.5,2.27-.97,3.56-1.24.62-.13,1.23-.2,1.82-.2h.2c.66.02,1.35.11,2,.28,1.36.35,2.49.9,3.52,1.43,1.07.56,2.12,1.19,3.13,1.87,1.96,1.31,3.84,2.88,5.6,4.68.07.43.04.88-.14,1.16-.19.29-.6.44-1.23.44ZM127.42,102.87c-.27,0-.53.01-.77.04-1.05.12-1.87.49-2.52,1.12-.59.58-1.1,1.49-1.45,2.63-.22.66-.38,1.4-.54,2.19-.08.39-.17.79-.27,1.2-.13.53-.29,1.15-.51,1.79l-.37,1.04,1.07.27c.33.08.65.17.96.27.57.17,1.11.35,1.63.53l.11.04c.7.24,1.27.46,1.78.69.54.25,1.13.56,1.7.9l.23.14c.48.29.86.52,1.23.68,1.03.47,2.48.59,3.06.62.17,0,.33.01.5.01.99,0,1.87-.14,2.56-.41.9-.35,1.51-.89,1.94-1.71.38-.82.5-1.85.37-2.92-.11-1.01-.42-2.1-.87-3.07-.39-.88-.98-1.73-1.8-2.57-1.45-1.46-3.46-2.57-5.67-3.14-.81-.21-1.62-.32-2.35-.32Z"/>
        <path d="M131.29,115.65c-.59-.08-1.4-.26-2.25-.71.08-.21.18-.46.29-.73.4-.94.96-1.98,1.55-2.85.58-.88,1.32-1.79,2.02-2.51.44-.45.79-.78.95-.92.13-.06.37-.16.68-.27.55-.19,1.13-.3,1.57-.31.14,0,.22-.01.3-.01.15,0,.25.01.31.03-.02.11-.08.29-.21.54l-.16.29s-.32.46-.43.63l-.46.71-.13.22c-.15.14-.44.41-.78.77-.59.61-1.22,1.4-1.72,2.17-.51.77-.99,1.67-1.32,2.46-.08.18-.14.34-.2.49Z"/>
      </g>
      <path class="cls-7" d="M28.03,217.23c.02.06.03.08,0,.17-.15.63-.75,1.68-2.19.8-.03-.02-.13-.1-.16-.15l-1.33-3.86-.48-1.4-.75-2.26-1.49-4.52c-.95-3.02-1.92-6.04-2.82-9.08-1.83-6.07-3.55-12.17-5.13-18.31-3.17-12.28-5.86-24.68-8-37.18-2.11-12.5-3.84-25.09-4.45-37.81-.29-6.35-.32-12.73.08-19.1.39-6.36,1.19-12.7,2.34-18.96.58-3.13,1.24-6.25,1.99-9.34l.58-2.32.3-1.16.15-.58.08-.29c1.09.14-2.41-.4,2.45.28v.07s0,.14,0,.14c.02,1.55.07,3.13.14,4.7.28,6.28.73,12.57,1.37,18.85,1.23,12.55,3.02,25.05,5.21,37.47h0c3.92,22.1,9.11,43.97,15.51,65.49l5.03,16.07c.4,1.34.9,2.66,1.35,3.99l1.18,3.4.15.43.59,1.71s.99,3.65,1.51,6.29c.97,4.43-.13,2.92-1.32.38.04.3-2.63-6.16-2.63-6.16l-.57-1.64-1.23-3.56c-.91-2.53-1.7-5.1-2.51-7.67l-2.42-7.7-1.21-3.85-1.11-3.88c-6.05-20.66-10.99-41.64-14.75-62.84h0c-2.19-12.48-4-25.04-5.24-37.66-.64-6.31-1.09-12.64-1.38-18.99-.07-1.59-.12-3.17-.14-4.78v-.15s0-.08,0-.08c4.89.6,1.35.21,2.43.36l-.08.28-.15.57-.3,1.14-.57,2.28c-.74,3.05-1.39,6.12-1.96,9.21-1.13,6.18-1.92,12.41-2.3,18.67-.4,6.26-.37,12.55-.08,18.82.6,12.56,2.31,25.07,4.42,37.51,2.13,12.43,4.81,24.77,7.96,36.98,1.57,6.11,3.28,12.18,5.1,18.22.89,3.02,1.86,6.03,2.81,9.04l1.48,4.49.74,2.24.48,1.4,1.32,3.84Z"/>
      <path class="cls-7" d="M12.12,52.31c-.06.02-.08.03-.17,0-.63-.16-1.67-.76-.78-2.19.02-.03.1-.13.15-.16.08-.03,1.51-.51,3.62-1.23,2.22-.74,4.53-1.51,6.92-2.3,3.58-1.15,7.27-2.34,11.06-3.57,7.6-2.41,15.62-4.84,23.94-7.25,16.64-4.82,34.47-9.51,52.39-13.68,4.48-1.04,8.96-2.06,13.43-3.04,2.24-.48,4.47-.96,6.7-1.44,1.11-.23,2.23-.47,3.34-.7,1.18-.16,2.34-.44,3.53-.46,2.36-.22,4.74.04,7.04.47,2.31.46,4.5,1.31,6.59,2.32,2.04,1.1,3.97,2.4,5.66,3.95,1.65,1.58,3.2,3.28,4.36,5.21.66.92,1.1,1.96,1.64,2.94.23.51.42,1.03.64,1.55.21.52.43,1.03.56,1.57.67,2.16,1.05,4.14,1.56,6.16.95,4.02,1.88,7.95,2.78,11.78,1.81,7.65,3.52,14.89,5.09,21.56,2.63,11.15,4.38,18.56,4.38,18.56,0,0,.62,3.74.86,6.41.52,4.5-.43,2.88-1.36.23.01.3-1.99-6.39-1.99-6.39,0,0-2.04-8.63-5.1-21.6-1.55-6.58-3.24-13.71-5.02-21.26-.89-3.77-1.81-7.65-2.74-11.61l-.36-1.48-.41-1.41-.2-.71-.27-.68-.55-1.37c-.86-1.77-1.83-3.53-3.14-5.06-2.49-3.16-5.94-5.61-9.77-7.15-1.94-.72-3.97-1.24-6.06-1.46-2.08-.16-4.21-.19-6.29.21-1.02.13-2.15.41-3.23.63-1.09.23-2.19.46-3.28.7-2.19.48-4.38.95-6.58,1.43-4.4.97-8.8,1.98-13.21,3.01-17.61,4.14-35.15,8.77-51.51,13.54-8.18,2.38-16.08,4.78-23.55,7.16-3.73,1.21-7.36,2.38-10.88,3.52-2.14.71-4.22,1.4-6.21,2.07-2.07.7-3.49,1.18-3.56,1.21Z"/>
      <path class="cls-7" d="M183.89,139.98c0-.06-.01-.08.03-.17.25-.6,1-1.54,2.29-.44.02.02.11.12.13.17l.72,4.06,5.38,30.44s.41,3.77.5,6.45c.26,4.53-.59,2.85-1.37.15,0,.3-1.62-6.49-1.62-6.49l-5.33-30.12-.72-4.06Z"/>
    </g>
  </g>
</svg>