<?xml version="1.0" encoding="UTF-8"?>
<svg id="Layer_2" data-name="Layer 2" xmlns="http://www.w3.org/2000/svg" xmlns:xlink="http://www.w3.org/1999/xlink" viewBox="0 0 303.97 247.53">
  <defs>
    <style>
      .cls-1 {
        fill: #1faea1;
      }

      .cls-2 {
        fill: #fff;
        opacity: .5;
      }

      .cls-3 {
        fill-rule: evenodd;
      }

      .cls-4 {
        clip-rule: evenodd;
        fill: none;
      }

      .cls-5 {
        clip-path: url(#clippath);
      }
    </style>
    <clipPath id="clippath">
      <path class="cls-4" d="M165.12,73.51c5.02-1.19,8.06.33,6.75,3.41l-4.35,10.28c-1.38,3.26.57,8.11,4.38,10.77l12.64,8.81c3.98,2.78,2.46,5.23-3.43,5.42l-19.19.61c-5.93.19-13.36,2.96-16.54,6.18l-10.62,10.76c-3.36,3.41-7.82,3.15-9.83-.58l-6.35-11.75c-1.9-3.52-8.11-7.08-13.81-7.95l-18.38-2.8c-5.63-.86-6.2-3.42-1.32-5.66l15.53-7.15c4.69-2.16,8.39-6.68,8.26-10.01l-.41-10.52c-.12-3.15,3.39-4.3,7.83-2.58l14.63,5.66c4.58,1.77,12.58,2.23,17.72,1l16.5-3.92Z"/>
    </clipPath>
  </defs>
  <g id="Layer_1-2" data-name="Layer 1">
    <g>
      <g>
        <path class="cls-1" d="M297.5,91.35c5.12-7.16-5.46-12.99-5.46-12.99,0,0-12.31-8.21-32.9-19.39-1.73-.94-5.54,1.77-7.45,2.11-2.51.45-5.08-.02-7.57.73-1.93.58-3.61,1.77-5.38,2.73-7.56,4.1-16.62,3.94-25.21,3.68-4.56-.14-9.19-.29-13.54-1.69-8.44-2.71-13.64-8-17.1-11.58-4.18-4.31-6.79-7.01-7.92-11.72-1.65-6.89,1.21-12.54,1.69-13.46,4.05-7.71,11.84-9.68,13.06-9.97-2.81-2.38-7.03-5.79-12.44-9.55-2.13-1.48-5.53-3.79-7.52-4.9-13.22-7.32-29.57,3.65-29.57,3.65,0,0-106.71,62.66-126.17,76.05-20.08,16.43,0,29.81,0,29.81l121.68,71.18s13.38,12.17,38.33-3.04c101.6-60.23,119.25-69.36,119.25-69.36,0,0,12.51-4.87,5.65-13.99l-1.4-8.3Z"/>
        <path class="cls-1" d="M297.5,120.61c5.12-7.16-5.46-12.99-5.46-12.99,0,0-12.31-8.21-32.9-19.39-1.73-.94-5.54,1.77-7.45,2.11-2.51.45-5.08-.02-7.57.73-1.93.58-3.61,1.77-5.38,2.73-7.56,4.1-16.62,3.94-25.21,3.68-4.56-.14-9.19-.29-13.54-1.69-6.61-2.12-11.96-6.92-17.1-11.58-3.85-3.49-7.82-7.15-9.75-11.98-1.95-4.86-1.57-10.41.05-15.39,1.68-5.14,4.9-10.07,9.8-12.37-4.24-4.12-8.07-6.92-13.23-9.85-13.22-7.32-29.57,3.65-29.57,3.65,0,0-106.71,62.66-126.17,76.05-20.08,16.43,0,29.81,0,29.81l121.68,71.18s13.38,12.17,38.33-3.04c101.6-60.23,119.25-69.36,119.25-69.36,0,0,12.51-4.87,5.65-13.99l-1.4-8.3Z"/>
        <path class="cls-1" d="M297.5,148.23c5.12-7.16-5.46-12.99-5.46-12.99,0,0-12.31-8.21-32.9-19.39-1.73-.94-5.54,1.77-7.45,2.11-2.51.45-5.08-.02-7.57.73-1.93.58-3.61,1.77-5.38,2.73-7.56,4.1-16.62,3.94-25.21,3.68-4.56-.14-9.19-.29-13.54-1.69-6.61-2.12-11.96-6.92-17.1-11.58-3.85-3.49-7.82-7.15-9.75-11.98-1.95-4.86-1.57-10.41.05-15.39,1.68-5.14,4.9-10.07,9.8-12.37-4.24-4.12-8.07-6.92-13.23-9.85-13.22-7.32-29.57,3.65-29.57,3.65,0,0-106.71,62.66-126.17,76.05-20.08,16.43,0,29.81,0,29.81l121.68,71.18s13.38,12.17,38.33-3.04c101.6-60.23,119.25-69.36,119.25-69.36,0,0,12.51-4.87,5.65-13.99l-1.4-8.3Z"/>
        <path d="M182.54,54.07c7.71,7.35,16.07,9.99,24.39,12.52,4.92,1.49,20.11,6.1,27.36,2.3,2.15-1.13,4.15-3.29,9.21-5.36,1.39-.57,2.65-.99,2.68-1.7.07-1.38-4.48-2.44-8.01-3.72-4.88-1.76-4.47-2.69-14.87-9.16-10.84-6.74-16.27-10.11-22.35-12.25-2.31-.81-3.69-1.15-5.38-2.51-5.57-4.49-4.55-12.59-7.91-12.87-1.82-.16-3.46,1.25-4.59,2.51-1.38.71-5.33,2.97-7.51,7.78-.28.63-1.72,3.91-1.34,8.22.12,1.33.79,7.06,8.33,14.24Z"/>
        <path d="M149.44,193.74c-8.98,0-14.33-3.73-15.75-4.87l-.13-.1L12.04,117.67l-.12-.07c-.35-.24-9.25-6.28-9.7-15.57-.29-5.96,2.93-11.75,9.58-17.19.05-.04.1-.08.15-.11C30.63,71.89,127.17,15.11,138.12,8.68l.09-.06c1-.66,10.11-6.42,20.31-6.42,4.06,0,7.79.93,11.09,2.75,16.67,9.45,20.43,12.96,21.12,13.72l.15.19c.07.09.13.18.17.27l.07.19c.13.42.14.77.04,1.11l-.03.13c-.05.13-.12.29-.22.44l-.14.21-.3.4.02.77c.03,1.72,1.32,5.54,9.56,11.77l.11.09,43.51,24.77.31.07c.65.15,2.98.64,5.57.64,2.25,0,4.1-.38,5.48-1.13.63-.33,1.33-.51,2.03-.51s1.35.17,1.94.49c19.65,10.68,31.62,18.53,32.92,19.39l.12.07c.65.37,6.35,3.77,7.49,8.77.53,2.33,0,4.69-1.54,6.84-.4.56-.87,1.11-1.4,1.64l-.77.78-.38-5.29c.57-1.05.73-2.08.49-3.13-.8-3.6-5.75-6.42-5.8-6.45-.04-.02-.08-.05-.12-.07-.33-.22-7.7-5.1-20.22-12.3l-1.32-.76-1.17.97c-2.25,1.85-4.61,3.46-7.03,4.78-5.87,3.19-21.48,10.62-39.69,10.62-8.53,0-16.58-1.66-23.91-4.94-9.71-4.34-17.38-8.79-23.46-13.6-3.77-2.99-7.12-6.54-9.95-10.56-8.37-11.91-5.34-25.02,1.38-32.73,2.09-2.4,4.92-5.47,8.24-7.97l2.64-1.99-2.85-1.67c-1.48-.87-3.08-1.79-4.86-2.8-2.75-1.52-5.87-2.28-9.3-2.28-9.05,0-17.39,5.25-18.31,5.84l-.12.08c-1.06.62-106.42,62.52-125.92,75.88l-.08.06-.08.06c-5.59,4.61-8.31,9.32-8.1,14,.31,6.83,6.69,11.74,7.96,12.65l.08.06,121.63,71.15c.11.06.21.14.31.23.54.46,5.09,4.15,13.49,4.15,6.97,0,14.58-2.49,22.64-7.4,100.61-59.64,118.64-69.05,119.36-69.42.06-.03.12-.06.19-.08.06-.03,5.34-2.17,6.35-5.78.46-1.62-.06-3.43-1.52-5.38-.31-.42-.43-.93-.34-1.44l.05-.27-.1-1.37,1.98.13c.55.04,1.03.3,1.36.73,2.74,3.64,2.66,6.71,2.11,8.63-1.42,4.99-7.23,7.63-8.38,8.11l-.09.04-.09.05c-2.15,1.14-23.79,12.78-118.98,69.21-8.64,5.27-16.87,7.93-24.47,7.94h0ZM178.15,15.59c-4.23,2.32-7.8,6.07-10.73,9.43-5.35,6.14-8.86,17.2-1.14,28.18,2.62,3.72,5.72,7.02,9.22,9.79,5.83,4.62,13.25,8.91,22.67,13.13,6.88,3.08,14.44,4.63,22.47,4.63,17.28,0,32.23-7.13,37.86-10.19,1.24-.67,2.48-1.45,3.79-2.36l2.88-2.02-3.08-1.71c-1.31-.73-2.65-1.47-4.04-2.22l-.96-.52-1,.45c-1.81.82-4.05,1.23-6.64,1.23h-.93s-.61.5-.61.5c-1.71,1.41-3.3,2.46-5.47,3.65-4.84,2.63-11.33,4.02-18.76,4.02-5.96,0-12.38-.89-18.08-2.5-8.04-2.28-15.51-5.94-21.02-10.31-3.49-2.77-6.33-5.79-8.44-8.98-5.16-7.81-4.95-16.58.57-22.91,1.75-2.01,3.97-3.91,6.6-5.64l2.75-1.81-2.73-1.85c-.82-.56-1.79-1.19-2.93-1.92l-1.1-.7-1.14.62ZM184.27,25c-1.83,1.31-3.44,2.76-4.79,4.31-4.44,5.09-4.54,11.99-.27,18.45,1.89,2.86,4.47,5.59,7.66,8.12,5.14,4.07,12.15,7.5,19.73,9.65,5.28,1.5,11.32,2.32,16.99,2.32,6.28,0,11.79-1.03,15.92-2.97l3.84-1.8-45.12-25.7c-.06-.03-.12-.08-.19-.12-5.49-4.12-9-7.93-10.46-11.33l-1.08-2.52-2.23,1.6Z"/>
      </g>
      <path d="M163.14,219.05c-.08.01-.1.02-.22-.03-.79-.29-1.92-1.22-.6-2.85.02-.03.14-.14.21-.17,1.64-.31,3.26-.74,4.86-1.21,7.02-2.1,13.65-5.53,20.15-9.2,6.52-3.67,12.94-7.61,19.38-11.45l19.31-11.57c6.41-3.89,12.67-8.01,18.92-12.16,12.49-8.32,24.82-16.93,37.53-25.04l4.78-3.02c1.64-1.01,3.07-1.96,4.5-3.07,1.36-1.14,2.66-2.36,3.73-3.73,1.06-1.38,1.94-2.87,2.56-4.45l.38-1.21c.03-.11.07-.22.1-.33l.13-.67c.08-.45.19-.89.2-1.35,0,0,.04-.26.11-.71.11-.44.08-1.08.13-1.82,0-1.47-.17-3.38-.57-4.95-.28-1.35-.62-2.19-.68-2.75-.08-.55,0-.74.19-.68.2.06.51.39.9.9.19.26.41.56.63.89.2.35.4.74.6,1.15-.04-.2.94,1.78,1.38,4.05.06.28.12.56.18.84.03.28.06.56.09.84.04.55.14,1.06.11,1.5-.02.89-.03,1.49-.03,1.49-.07.54-.19,1.08-.29,1.62-.05.27-.1.54-.19.8l-.43,1.36c-.39.93-.76,1.88-1.28,2.73-.46.9-1.07,1.68-1.64,2.5-.64.75-1.25,1.54-1.96,2.21-1.36,1.42-2.9,2.61-4.48,3.72-1.63,1.1-3.16,2.02-4.73,3.01l-4.66,2.97c-12.39,7.99-24.51,16.44-36.83,24.63-6.17,4.09-12.37,8.15-18.72,11.96l-19.04,11.41c-6.36,3.8-12.65,7.65-19.12,11.28-6.46,3.64-13.18,7.11-20.45,9.29-1.69.5-3.4.95-5.14,1.28Z"/>
      <path d="M11.35,120.01c.05-.06.06-.09.19-.12.79-.32,2.24-.4,2.37,1.69,0,.04,0,.2-.04.26-.97,1.35-1.87,2.74-2.66,4.17-1.66,3.07-2.77,6.44-2.53,9.71.12,1.62.56,3.2,1.34,4.64.2.36.44.7.65,1.05.13.2.07.12.09.15l.53.38,2.24,1.6c5.95,4.3,12.06,8.38,18.2,12.41,12.33,7.99,24.96,15.53,37.8,22.72,12.82,7.22,25.82,14.14,38.84,21.02l9.77,5.15,4.88,2.57,4.91,2.52,2.23,1.13,1.34.66s1.01.59,2.39,1.33c1.37.75,3.14,1.61,4.64,2.25,1.28.53,2.14.84,2.62,1.09.49.25.6.43.43.56-.33.24-1.84.3-3.62-.01.17.09-1.95-.34-4.04-1.04-2.09-.69-4.13-1.55-4.13-1.55l-1.36-.67-4.23-2.16c-6.45-3.33-12.85-6.75-19.26-10.12-12.81-6.77-25.6-13.61-38.24-20.75-12.65-7.11-25.11-14.59-37.3-22.5-6.06-4-12.11-8.04-17.99-12.3l-2.22-1.58-.29-.21c-.16-.14-.39-.23-.51-.42l-.5-.78c-.26-.43-.56-.83-.76-1.3-.95-1.78-1.48-3.81-1.59-5.82-.21-4.06,1.13-7.88,2.91-11.2.86-1.58,1.83-3.09,2.87-4.53Z"/>
      <path d="M11.36,146.25c.05-.06.07-.08.2-.11.83-.25,2.28-.17,2.2,1.91,0,.04-.02.2-.06.26-.05.08-1.32,1.4-2.71,3.6l-.13.21-.12.2c-.36.6-.67,1.21-.97,1.84-1.15,2.5-1.69,5.31-1.24,8.02.42,2.7,1.97,5.19,4.08,7.35,2.1,2.17,4.65,4.08,7.33,5.9,5.39,3.61,11.29,6.9,17.29,10.29,6.02,3.38,12.18,6.81,18.4,10.38,12.47,7.11,25.03,14.92,38.04,22.3,6.51,3.69,13.13,7.27,19.87,10.7,3.37,1.71,6.76,3.4,10.17,5.07,3.41,1.65,6.82,3.28,10.28,4.71,3.46,1.43,6.98,2.62,10.58,3.39,3.59.75,7.28,1.11,10.93.98,7.3-.19,14.42-2.52,21.08-5.57,6.69-3.06,13.03-6.88,19.38-10.51,6.32-3.67,12.54-7.35,18.62-11.02,24.32-14.67,46.45-29.24,65.09-42.16,1.16-.81,2.31-1.61,3.45-2.41.57-.4,1.13-.79,1.7-1.18l.92-.61.9-.55c2.35-1.4,4.54-2.72,6.44-4.28,1.89-1.54,3.52-3.27,4.59-5.2.27-.48.53-.96.72-1.47.1-.25.22-.49.3-.75l.22-.77c.04-.14.08-.28.12-.42.1-.48.2-.91.23-1.26.1-.71.1-1.12.1-1.12,0,0,.16-1.05.13-2.54-.02-1.48-.32-3.39-.71-4.97-.74-2.65-.97-3.53-.53-3.43.4.12,1.35,1.27,2.18,2.9-.04-.19.94,1.76,1.48,3.99.61,2.21.53,4.64.53,4.64,0,0-.04.49-.16,1.35-.04.21-.08.45-.13.71-.03.13-.04.26-.09.4l-.06.21c-.13.45-.26.9-.39,1.36-.22.58-.47,1.15-.72,1.73-1.11,2.26-2.75,4.27-4.64,5.99-1.89,1.74-4.06,3.18-6.27,4.53-1.1.67-2.25,1.32-3.21,1.98-1.07.75-2.16,1.51-3.26,2.27-2.21,1.53-4.46,3.09-6.77,4.68-18.47,12.7-40.42,26.99-64.51,41.4-6.02,3.6-12.17,7.23-18.44,10.82-6.25,3.6-12.67,7.28-19.64,10.11-3.48,1.41-7.11,2.57-10.87,3.33-3.74.76-7.66,1.08-11.49.87-1.92-.08-3.84-.32-5.75-.61-1.9-.34-3.79-.76-5.64-1.28-3.7-1.07-7.27-2.47-10.72-4.02-13.7-6.34-27.03-13.27-39.92-20.65-12.86-7.39-25.25-15.05-37.51-22-6.15-3.46-12.21-6.87-18.14-10.21-5.93-3.36-11.77-6.64-17.21-10.42-2.7-1.92-5.33-3.97-7.54-6.54-1.1-1.28-2.08-2.71-2.8-4.29-.72-1.58-1.15-3.3-1.26-5-.24-3.41.7-6.74,2.19-9.52.19-.34.37-.7.58-1.03l.09-.15.07-.12.14-.24c1.57-2.46,2.93-3.86,2.98-3.96Z"/>
      <path d="M295.78,91.34c.07-.04.09-.05.21-.03.81.05,2.23.55,1.46,2.52-.01.04-.09.18-.15.23l-4.5,2.52-124.76,69.77s-4.29,2.03-7.41,3.24c-5.24,2.17-3.61.47-.74-1.55-.35.12,7-4.59,7-4.59l124.4-69.58,4.5-2.52Z"/>
      <g>
        <g>
          <path class="cls-3" d="M165.12,73.51c5.02-1.19,8.06.33,6.75,3.41l-4.35,10.28c-1.38,3.26.57,8.11,4.38,10.77l12.64,8.81c3.98,2.78,2.46,5.23-3.43,5.42l-19.19.61c-5.93.19-13.36,2.96-16.54,6.18l-10.62,10.76c-3.36,3.41-7.82,3.15-9.83-.58l-6.35-11.75c-1.9-3.52-8.11-7.08-13.81-7.95l-18.38-2.8c-5.63-.86-6.2-3.42-1.32-5.66l15.53-7.15c4.69-2.16,8.39-6.68,8.26-10.01l-.41-10.52c-.12-3.15,3.39-4.3,7.83-2.58l14.63,5.66c4.58,1.77,12.58,2.23,17.72,1l16.5-3.92Z"/>
          <g class="cls-5">
            <rect class="cls-2" x="107.87" y="27.18" width="22.44" height="112.93" transform="translate(2.67 -3.68) rotate(1.79)"/>
            <rect class="cls-2" x="137.5" y="27.96" width="12.86" height="112.93" transform="translate(2.71 -4.45) rotate(1.79)"/>
          </g>
        </g>
        <path class="cls-2" d="M148.86,48.56l-105.18,57.16,76.41,49.45,84.66-54.94-5.55-14.11-6.55-18.83-36.87-18.56c-2.31-1.16-4.96-1.22-6.92-.16Z"/>
        <path class="cls-2" d="M192.65,67.28l-12.51,14.17c-.9,1.01-.41,2.74,1.03,3.67l23.58,15.11-12.1-32.94Z"/>
        <path d="M41.66,107.17c-.06-.04-.08-.06-.12-.18-.32-.75-.5-2.24,1.6-2.43.04,0,.21,0,.27.03l4.26,2.91c11.8,8.07,23.59,16.13,35.65,23.74,6.03,3.81,12.11,7.53,18.28,11.08,3.1,1.75,6.19,3.51,9.34,5.17l1.69.91c.44.24.89.47,1.34.7,0,0,1,.62,2.36,1.45.67.43,1.43.91,2.21,1.4.77.48,1.55.97,2.25,1.43,4.78,3.02,2.49,2.68-.84,1.5.16.1-1.82-.63-3.78-1.49-1.97-.86-3.98-1.73-3.98-1.73l-1.33-.7-2.48-1.33c-1.56-.83-3.11-1.68-4.64-2.55-1.53-.87-3.09-1.71-4.6-2.61-6.12-3.52-12.11-7.22-18.07-10.99-11.91-7.53-23.54-15.48-35.14-23.41l-4.26-2.9Z"/>
        <path d="M190.69,67.1c.05-.06.07-.08.19-.11.78-.25,2.28-.28,2.26,1.83,0,.04-.02.2-.06.27l-3.3,3.96-4.62,5.54-2.31,2.77c-.39.47-.79.93-1,1.26-.23.36-.26.56-.24.67-.03.27.63,1.01,1.56,1.58l3.03,1.89,6.13,3.8,2.44,1.52s3.85,2.76,6.42,4.92c4.44,3.53,2.16,2.93-1,1.4.27.25-7.4-3.9-7.4-3.9l-2.1-1.3-6.13-3.8-3.1-1.93c-.55-.36-1.12-.77-1.68-1.34-.54-.56-1.12-1.37-1.26-2.45-.15-1.09.29-2.09.71-2.73.45-.68.86-1.11,1.23-1.57l2.31-2.77,4.62-5.54,3.3-3.96Z"/>
      </g>
      <path class="cls-3" d="M110.77,41.1c7.06-4.75,13.87-9.87,21.06-14.42,1.93-1.23,3.68,1.86,1.76,3.08-7.19,4.55-13.99,9.67-21.06,14.42-1.9,1.28-3.65-1.82-1.75-3.08Z"/>
      <path class="cls-3" d="M138.34,22.48c.78-.5,1.54-.99,2.22-1.64.69-.67,1.81-.69,2.51,0,.67.67.7,1.83,0,2.51-.89.86-1.92,1.55-2.97,2.22-.81.52-1.96.14-2.42-.66-.49-.86-.15-1.9.67-2.42Z"/>
    </g>
  </g>
</svg>