<?xml version="1.0" encoding="UTF-8"?>
<svg id="Layer_2" data-name="Layer 2" xmlns="http://www.w3.org/2000/svg" viewBox="0 0 272.08 277">
  <defs>
    <style>
      .cls-1, .cls-2, .cls-3, .cls-4, .cls-5, .cls-6 {
        fill: none;
        stroke: #000;
        stroke-linecap: round;
        stroke-linejoin: round;
        stroke-width: 2.5px;
      }

      .cls-7, .cls-8, .cls-9 {
        fill-rule: evenodd;
      }

      .cls-7, .cls-10 {
        fill: #fff;
      }

      .cls-2 {
        stroke-dasharray: 5.6 5.6;
      }

      .cls-11, .cls-9 {
        fill: #1faea1;
      }

      .cls-3 {
        stroke-dasharray: 5.59 5.59;
      }

      .cls-4 {
        stroke-dasharray: 5.6 5.6;
      }

      .cls-5 {
        stroke-dasharray: 5.59 5.59;
      }

      .cls-12 {
        fill: #202020;
      }

      .cls-6 {
        stroke-dasharray: 5.59 5.59;
      }
    </style>
  </defs>
  <g id="Layer_1-2" data-name="Layer 1">
    <g>
      <g>
        <polygon class="cls-10" points="27.32 29.34 39.76 238.26 256.55 238.67 267.33 20.63 27.32 29.34"/>
        <g>
          <g>
            <path class="cls-7" d="M208.58,131.1s21.01,15.61,27.17,26.78v-24.86s-11.75-12.52-27.94-17.53"/>
            <path class="cls-7" d="M62.29,129.24c2.57-4.11,7.57-7.45,11.68-10.14,3.73-2.31,7.58-5.14,11.82-6.42,3.85-1.16,6.42,1.02,6.3,5.01-.13,3.47-2.31,6.43-4.5,8.87-1.03.9-2.18,1.79-3.21,2.69,2.31.39,3.72-.9,5.39,1.16.9,1.29,1.41,2.82,1.41,4.37,0,4.37,1.84,6.14-.98,8.84,1.41.26-2.61.16-1.2.67,2.57.64,2.57,2.45,2.57,4.76,0,4.62-3.59,8.87-6.94,11.95l-12.65,13.87"/>
            <g>
              <path class="cls-9" d="M139.88,45.75c4.27-8.66,11.27-8.66,15.55,0l13.88,28.12c4.27,8.67,15.59,16.89,25.15,18.28l31.02,4.51c9.57,1.39,11.73,8.05,4.82,14.79l-22.46,21.88c-6.92,6.74-11.24,20.05-9.61,29.57l5.3,30.9c1.64,9.52-4.02,13.64-12.58,9.14l-27.75-14.59c-8.55-4.49-22.55-4.5-31.1,0l-27.74,14.59c-8.55,4.49-14.21.38-12.58-9.14l5.3-30.91c1.63-9.52-2.69-22.83-9.61-29.57l-22.45-21.89c-6.92-6.74-4.76-13.4,4.8-14.79l31.02-4.51c9.57-1.39,20.89-9.61,25.16-18.27l13.88-28.11Z"/>
              <g>
                <path class="cls-9" d="M139.88,45.75c4.27-8.66,11.27-8.66,15.55,0l13.88,28.12c4.27,8.67,15.59,16.89,25.15,18.28l31.02,4.51c9.57,1.39,11.73,8.05,4.82,14.79l-22.46,21.88c-6.92,6.74-11.24,20.05-9.61,29.57l5.3,30.9c1.64,9.52-4.02,13.64-12.58,9.14l-27.75-14.59c-8.55-4.49-22.55-4.5-31.1,0l-27.74,14.59c-8.55,4.49-14.21.38-12.58-9.14l5.3-30.91c1.63-9.52-2.69-22.83-9.61-29.57l-22.45-21.89c-6.92-6.74-4.76-13.4,4.8-14.79l31.02-4.51c9.57-1.39,20.89-9.61,25.16-18.27l13.88-28.11Z"/>
                <line class="cls-1" x1="142.05" y1="46.82" x2="137.7" y2="44.68"/>
                <line class="cls-1" x1="155.5" y1="51.36" x2="159.84" y2="49.22"/>
                <line class="cls-1" x1="167.18" y1="75.03" x2="171.51" y2="72.87"/>
                <line class="cls-1" x1="188.21" y1="92.98" x2="189.9" y2="88.44"/>
                <line class="cls-1" x1="214.7" y1="97.52" x2="215.39" y2="92.73"/>
                <line class="cls-1" x1="231.36" y1="106.02" x2="235.75" y2="108.06"/>
                <line class="cls-1" x1="213.61" y1="124.3" x2="216.99" y2="127.77"/>
                <line class="cls-1" x1="197.55" y1="146.19" x2="202.16" y2="147.7"/>
                <line class="cls-1" x1="197.56" y1="173.36" x2="202.34" y2="172.54"/>
                <line class="cls-1" x1="201.24" y1="198.64" x2="206.01" y2="199.47"/>
                <line class="cls-1" x1="182.93" y1="195.98" x2="180.68" y2="200.26"/>
                <line class="cls-1" x1="158.86" y1="184.04" x2="157.53" y2="188.7"/>
                <line class="cls-1" x1="131.27" y1="186.05" x2="133.46" y2="190.36"/>
                <line class="cls-1" x1="107.91" y1="198.33" x2="110.16" y2="202.61"/>
                <line class="cls-1" x1="94.13" y1="194.39" x2="89.35" y2="193.61"/>
                <line class="cls-1" x1="98.59" y1="168.39" x2="93.81" y2="167.58"/>
                <line class="cls-1" x1="95.77" y1="141.23" x2="91.39" y2="143.29"/>
                <line class="cls-1" x1="78.02" y1="120.73" x2="74.64" y2="124.19"/>
                <line class="cls-1" x1="63.53" y1="102.82" x2="58.9" y2="101.4"/>
                <line class="cls-1" x1="85.61" y1="96.79" x2="84.91" y2="92"/>
                <line class="cls-1" x1="112.02" y1="90.72" x2="109.7" y2="86.47"/>
                <line class="cls-1" x1="130.36" y1="70.49" x2="126.02" y2="68.35"/>
              </g>
              <g>
                <polyline class="cls-1" points="82.61 110.27 80.62 108.32 83.37 107.93"/>
                <path class="cls-6" d="M88.91,107.12l13.82-2.01c13.81-2.01,28.87-12.95,35.04-25.46l7.42-15.03"/>
                <polyline class="cls-1" points="146.42 62.12 147.65 59.62 148.88 62.12"/>
                <path class="cls-2" d="M151.36,67.13l6.18,12.53c6.16,12.5,21.22,23.45,35.03,25.45l16.6,2.41"/>
                <polyline class="cls-1" points="211.94 107.93 214.69 108.33 212.7 110.27"/>
                <path class="cls-3" d="M208.69,114.17l-10.01,9.75c-9.99,9.74-15.74,27.44-13.38,41.19l2.83,16.52"/>
                <polyline class="cls-1" points="188.6 184.38 189.07 187.13 186.61 185.83"/>
                <path class="cls-5" d="M181.66,183.23l-12.36-6.5c-5.98-3.15-13.67-4.88-21.65-4.88s-15.68,1.74-21.66,4.89l-14.83,7.8"/>
                <polyline class="cls-1" points="108.68 185.84 106.22 187.13 106.69 184.39"/>
                <path class="cls-4" d="M107.64,178.88l2.36-13.77c2.36-13.74-3.4-31.45-13.38-41.18l-12-11.7"/>
              </g>
              <g>
                <path class="cls-10" d="M136.09,110.8c-15.12,7.76-12.25,33.46,3.77,38.64,16.02,5.18,26.92-10.56,26.39-20.73-.53-10.17-12.72-26.86-30.16-17.91Z"/>
                <path d="M134.35,110c.07-.04.1-.05.23-.04.44,0,1.01.13,1.35.52.35.38.46,1.03.14,1.98-.01.03-.08.18-.13.22-1.34.8-2.57,1.79-3.62,2.95-3.13,3.48-4.65,8.32-4.58,13.1.01,2.4.4,4.8,1.16,7.08.73,2.28,1.85,4.43,3.3,6.31,1.43,1.89,3.25,3.45,5.28,4.59,2.02,1.15,4.37,1.79,6.7,2.09,2.34.26,4.71.05,6.93-.69,2.23-.71,4.29-1.94,6.1-3.48,3.6-3.1,6.21-7.5,7.19-12.12.49-2.33.42-4.59-.22-6.9-.6-2.29-1.65-4.5-2.94-6.53-2.61-4.03-6.45-7.35-10.96-8.66l-.91-.23c-.11-.03-.22-.06-.34-.08l-.68-.11c-.45-.09-.91-.11-1.37-.16,0,0-.27-.06-.72-.09-.45-.05-1.09-.11-1.84-.1-1.49-.02-3.4.21-4.99.52-1.34.32-2.22.56-2.76.64-.54.07-.74,0-.68-.2.13-.38,1.32-1.3,2.97-2.1-.19.05,1.81-.87,4.05-1.32.55-.13,1.12-.21,1.66-.27.54-.09,1.05-.1,1.49-.12.44-.03.81-.03,1.07-.02.26,0,.41.01.41.01.54.03,1.08.13,1.61.22.27.04.54.09.8.16l1.01.25c.65.21,1.31.4,1.94.67,5.1,2.07,9.07,6.09,11.69,10.7,1.31,2.32,2.32,4.83,2.84,7.51.25,1.34.36,2.76.27,4.14-.08,1.38-.33,2.72-.68,4.03-1.45,5.19-4.49,9.86-8.74,13.21-1.07.82-2.22,1.56-3.43,2.19-1.22.62-2.5,1.1-3.82,1.48-1.32.36-2.68.56-4.05.65-1.36.04-2.74,0-4.08-.22-.68-.08-1.33-.26-1.99-.39-.65-.19-1.3-.34-1.94-.58-.64-.24-1.29-.46-1.9-.77l-.92-.45-.89-.52c-2.36-1.39-4.36-3.33-5.96-5.5-3.19-4.38-4.77-9.75-4.77-15.09,0-5.32,1.69-10.83,5.39-14.94,1.26-1.39,2.73-2.58,4.34-3.54Z"/>
                <path d="M138.16,116.92c.07-.05.1-.07.23-.06.46-.01,1.05.1,1.39.48.36.38.46,1.03.19,1.96-.01.03-.07.17-.11.22-1.22.82-2.25,1.91-2.98,3.22-2.43,4.31-1.87,10.38,1.14,14.35,2.9,4.07,9.01,5.23,13.14,2.53,1.04-.68,1.99-1.51,2.81-2.48.78-.99,1.52-2.05,2.01-3.23.5-1.16.91-2.39,1.01-3.6.13-1.19-.03-2.37-.38-3.59-.37-1.21-.93-2.37-1.59-3.47-.72-1.05-1.48-2.11-2.45-2.92l-.31-.29s-.08-.08-.13-.11l-.27-.2-.54-.4c-.34-.29-.76-.44-1.14-.67,0,0-.86-.59-2.19-1.02-.66-.27-1.45-.36-2.27-.5-.82.01-1.68-.09-2.46.06-1.34.13-2.19.46-2.74.49-.55.06-.75-.01-.68-.22.07-.19.41-.5.94-.87.27-.18.58-.4.94-.6.38-.16.79-.33,1.23-.5-.05,0,.05-.04.25-.12.2-.09.52-.19.94-.25.42-.07.91-.16,1.45-.26.55,0,1.14-.01,1.74-.02.6.03,1.19.16,1.76.24.57.09,1.06.3,1.5.43.45.13.79.29,1.03.41.24.12.38.18.38.18l.74.41.68.49.67.5c.06.04.11.08.16.13l.36.33.85.79c1.02,1.14,1.99,2.34,2.7,3.69.74,1.33,1.33,2.75,1.67,4.28.36,1.5.45,3.23.14,4.76-.3,1.54-.77,3.02-1.48,4.38-.71,1.35-1.54,2.65-2.6,3.78-.49.59-1.1,1.08-1.68,1.6-.3.25-.63.46-.95.69-.32.23-.64.45-1,.62l-1.05.55c-.36.15-.74.28-1.12.42-.73.32-1.54.39-2.32.57-1.58.16-3.2.12-4.7-.28-1.51-.31-3.04-.94-4.34-1.83-1.32-.89-2.45-2.02-3.37-3.28-1.84-2.52-2.83-5.53-3.06-8.57-.22-3.03.31-6.2,1.87-8.94.95-1.7,2.33-3.19,3.97-4.28Z"/>
                <path d="M143.1,124.62c-.08-.18-.22-.32-.34-.47-.13-.16-.33-.29-.48-.4-.05-.03-.1-.06-.15-.09-.17-.08-.39-.19-.59-.22-.17-.03-.35-.06-.52-.07-.03,0-.06,0-.09,0-.21,0-.42.04-.63.08-.07.01-.13.03-.19.06-.18.07-.39.14-.56.25-.02.01-.04.03-.07.05-.03.01-.06.03-.08.04-.01,0-.03.01-.04.02-.4.22-.75.58-.97.97-.05.08-.14.32-.13.29.02-.04-.09.2-.12.29,0,.03-.01.05-.02.08-.03.14-.07.48-.08.62,0,.02,0,.03,0,.05,0,.01,0,.02,0,.04.01.11.03.22.04.33.01.1.02.21.04.31,0,.03.01.05.02.08.06.17.16.4.24.56,0,.01.01.03.02.04.05.11.15.2.21.29.06.08.12.15.18.23.15.12.31.24.46.35.02.01.03.02.05.03.02.02.05.03.07.04.01,0,.03.01.04.02l.26.11c.09.04.19.08.29.12.24.06.49.1.74.09.24-.01.49-.03.71-.11.18-.06.37-.14.55-.23.02,0,.04-.02.06-.03.02-.01.04-.03.06-.04.14-.1.3-.22.43-.34.04-.04.08-.09.12-.13,0,.01-.02.02-.03.04.02-.02.04-.05.06-.07.03-.03.06-.06.08-.1.08-.1.16-.2.23-.31.1-.17.19-.42.25-.56.02-.05.03-.1.05-.15.04-.2.07-.41.08-.61-.02.15-.04.3-.06.46.01-.06.03-.12.04-.18.03-.2.08-.42.07-.63-.02-.46-.11-.77-.3-1.17Z"/>
                <path d="M151.43,121.79c-.08-.18-.22-.32-.34-.47-.13-.16-.33-.29-.48-.4-.05-.03-.1-.06-.15-.09-.17-.08-.39-.19-.59-.22-.17-.03-.35-.06-.52-.07-.03,0-.06,0-.09,0-.21,0-.42.04-.63.08-.07.01-.13.03-.19.06-.18.07-.39.14-.56.25-.02.01-.04.03-.07.05-.03.01-.06.03-.08.04-.01,0-.03.01-.04.02-.39.22-.75.58-.97.97-.05.08-.14.32-.13.29.02-.04-.09.2-.12.29,0,.03-.01.05-.02.08-.03.14-.07.48-.08.62,0,.02,0,.03,0,.05,0,.01,0,.02,0,.04.01.11.03.22.04.33.01.1.02.21.04.31,0,.03.01.05.02.08.06.17.16.4.24.56,0,.01.01.03.02.04.05.11.15.2.21.29.06.08.12.15.18.23.15.12.31.24.46.35.02.01.03.02.05.03.02.02.05.03.07.04.01,0,.03.01.04.02l.26.11c.09.04.19.08.29.12.24.06.49.1.74.09.24-.01.49-.03.71-.11.18-.06.37-.14.55-.23.02,0,.04-.02.06-.03.02-.01.04-.03.06-.04.14-.1.3-.22.43-.34.04-.04.08-.09.12-.13,0,.01-.02.02-.03.04.02-.02.04-.05.06-.07.03-.03.06-.06.08-.1.08-.1.16-.2.23-.31.1-.17.19-.42.25-.56.02-.05.03-.1.05-.15.04-.2.07-.41.08-.61-.02.15-.04.3-.06.46.01-.06.03-.12.04-.18.03-.2.08-.42.07-.63-.02-.46-.11-.77-.3-1.17Z"/>
                <path d="M145.16,132.09c-.08-.18-.22-.32-.34-.47-.13-.16-.33-.29-.48-.4-.05-.03-.1-.06-.15-.09-.17-.08-.39-.19-.59-.22-.17-.03-.35-.06-.52-.07-.03,0-.06,0-.09,0-.21,0-.42.04-.63.08-.07.01-.13.03-.19.06-.18.07-.39.14-.56.25-.02.01-.04.03-.07.05-.03.01-.06.03-.08.04-.01,0-.03.01-.04.02-.39.22-.75.58-.97.97-.05.08-.14.32-.13.29.02-.04-.09.2-.12.29,0,.03-.01.05-.02.08-.03.14-.07.48-.08.62,0,.02,0,.03,0,.05,0,.01,0,.02,0,.04.01.11.03.22.04.33.01.11.02.21.04.31,0,.03.01.05.02.08.06.17.16.4.24.56,0,.01.01.03.02.04.05.11.15.2.21.29.06.08.12.15.18.23.15.12.31.24.46.35.02.01.03.02.05.03.02.02.05.03.07.04.01,0,.03.01.04.02l.26.11c.09.04.19.08.29.12.24.06.49.1.74.09.24-.01.49-.03.71-.11.18-.06.37-.14.55-.23.02,0,.04-.02.06-.03.02-.01.04-.03.06-.04.14-.1.3-.22.43-.34.04-.04.08-.09.12-.13,0,.01-.02.02-.03.04.02-.02.04-.05.06-.07.03-.03.06-.06.08-.1.08-.1.16-.2.23-.31.1-.17.19-.42.25-.56.02-.05.03-.1.05-.15.04-.2.07-.41.08-.61-.02.15-.04.3-.06.46.01-.06.03-.12.04-.18.03-.2.08-.42.07-.63-.02-.46-.11-.77-.3-1.17Z"/>
                <path d="M153.2,129.07c-.08-.18-.22-.32-.34-.47-.13-.16-.33-.29-.48-.4-.05-.03-.1-.06-.15-.09-.17-.08-.39-.19-.59-.22-.17-.03-.35-.06-.52-.07-.03,0-.06,0-.09,0-.21,0-.42.04-.63.08-.07.01-.13.03-.19.06-.18.07-.39.14-.56.25-.02.01-.04.03-.07.05-.03.01-.06.03-.08.04-.01,0-.03.01-.04.02-.4.22-.75.58-.97.97-.05.08-.14.32-.13.29.02-.04-.09.2-.12.29,0,.03-.01.05-.02.08-.03.14-.07.48-.08.62,0,.02,0,.03,0,.05,0,.01,0,.02,0,.04.01.11.03.22.04.33.01.1.02.21.04.31,0,.03.01.05.02.08.06.17.16.4.24.56,0,.01.01.03.02.04.05.11.15.2.21.29.06.08.12.15.18.23.15.12.31.24.46.35.02.01.03.02.05.03.02.02.05.03.07.04.01,0,.03.01.04.02l.26.11c.09.04.19.08.29.12.24.06.49.1.74.09.24-.01.49-.03.71-.11.18-.06.37-.14.55-.23.02,0,.04-.02.06-.03.02-.01.04-.03.06-.04.14-.1.3-.22.43-.34.04-.04.08-.09.12-.13,0,.01-.02.02-.03.04.02-.02.04-.05.06-.07.03-.03.06-.06.08-.1.08-.1.16-.2.23-.31.1-.17.19-.42.25-.56.02-.05.03-.1.05-.15.04-.2.07-.41.08-.61-.02.15-.04.3-.06.46.01-.06.03-.12.04-.18.03-.2.08-.42.07-.63-.01-.46-.11-.77-.3-1.17Z"/>
              </g>
            </g>
            <path class="cls-7" d="M262.54,186.98c0-4.77-1.93-10.28-3.08-14.89-1.3-5.22-3.14-10.29-6.23-14.75-4.22-6.09-4.21-11.62-4.79-18.81-.5-6.27-1.11-12.56-2.16-18.78-1.93-11.41-30.76-19.42-34.35-19.94-3.6-.52-13.49,7.32-.77,13.23,14.59,6.78,17.99,12.08,17.99,12.08-1.8,32.37-11.05,45.72-25.69,45.47-14.64-.26-37.51-40.84-48.3-29.54-10.79,11.3,24.15,36.74,29.54,45.73,5.4,8.99,24.85,42.16,27.75,45.22,4.17,4.39,8.64,26.08,11.61,43.2h46.61c-3.82-29.82-8.13-86.33-8.13-88.22Z"/>
            <path class="cls-7" d="M75.06,275.2c-.84-17.2-.71-40.38,5.8-43.2,3.87-1.67,22.35-36.23,27.74-45.22,5.4-8.99,40.33-34.43,29.54-45.73-10.79-11.3-33.65,29.29-48.3,29.54-14.64.26-23.89-13.1-25.69-45.47,0,0,3.39-5.3,17.98-12.08,12.72-5.9,2.83-13.74-.77-13.23-3.6.52-32.43,8.52-34.36,19.94-1.05,6.21-1.65,12.51-2.16,18.78-.57,7.19-.56,12.72-4.79,18.81-3.09,4.46-4.92,9.52-6.23,14.75-1.15,4.6-3.08,10.12-3.08,14.89,0,1.82-2.42,56.78-5.45,88.22h49.75Z"/>
          </g>
          <path d="M25.63,274.05c0,.08,0,.1-.09.19-.5.65-1.71,1.54-2.9-.2-.02-.03-.1-.18-.1-.25,0-.1.17-1.98.4-4.75,1.12-13.21,2.33-27.49,3.61-42.55.77-9.03,1.55-18.3,2.35-27.76.85-9.42,1.32-19.27,4.16-29.01.71-2.42,1.59-4.82,2.65-7.16,1.07-2.33,2.29-4.54,3.45-6.73,1.17-2.19,2.29-4.37,3.15-6.62.42-1.12.79-2.26,1.06-3.41l.38-1.79c.09-.6.21-1.19.28-1.79.16-1.2.25-2.39.26-3.59,0-1.2-.08-2.41-.19-3.67-.11-1.26-.22-2.59-.21-3.95,0-1.37.16-2.75.41-4.09.11-.67.29-1.33.48-1.98.19-.65.35-1.31.58-1.95.52-1.25.95-2.54,1.62-3.71,1.17-2.44,2.77-4.62,4.43-6.73.91-.99,1.75-2.05,2.75-2.94.49-.46.96-.94,1.46-1.39l1.56-1.28c.51-.44,1.05-.84,1.61-1.22.55-.38,1.1-.78,1.66-1.15,1.17-.67,2.3-1.43,3.54-1.98,2.41-1.25,5.04-2.12,7.74-2.66,2.7-.6,5.58-.53,8.37-.04,1.38.29,2.72.72,4.02,1.27,1.3.57,2.57,1.23,3.75,2.24.59.5,1.17,1.08,1.62,1.94.12.19.21.45.29.69.1.23.14.52.17.8.05.27.02.58-.03.88-.04.31-.11.59-.25.84-.23.57-.57.91-.9,1.28-.32.27-.66.58-.98.77-.32.22-.64.42-.94.58-.31.18-.62.34-.92.49-2.41,1.21-4.67,2.27-6.78,3.64-2.13,1.34-4.04,2.91-5.83,4.7-3.53,3.53-6.26,7.87-7.42,12.64-1.14,4.77-.75,9.85.73,14.62.73,2.39,1.71,4.71,2.86,6.95,1.15,2.21,2.5,4.47,3.83,6.6,1.35,2.13,2.83,4.1,4.58,5.69,1.76,1.55,3.81,2.68,6.05,3.01,2.21.38,4.52-.02,6.71-.9,2.2-.86,4.28-2.17,6.28-3.62,2-1.45,3.9-3.08,5.85-4.71,1.94-1.63,3.88-3.25,5.81-4.86,3.86-3.23,7.7-6.44,11.51-9.63,1.91-1.57,3.76-3.26,6.02-4.69,1.13-.7,2.35-1.32,3.7-1.73,1.36-.42,2.78-.57,4.22-.46,1.43.14,2.89.55,4.16,1.42,1.27.85,2.27,2.15,2.79,3.53,1.08,2.77.65,5.8-.37,8.19-1,2.43-2.35,4.6-4.26,6.51-1.68,1.61-3.28,3.29-4.83,5.02-6.17,6.93-11.35,14.54-17.04,21.57-1.43,1.77-2.87,3.44-4.21,5.15-1.35,1.71-2.65,3.44-3.88,5.2-2.48,3.51-4.75,7.11-6.98,10.68-4.42,7.16-8.8,14.03-12.51,20.8-3.72,6.77-6.47,13.59-7.99,20.41-.79,3.4-1.31,6.76-1.64,10.05-.15,1.65-.27,3.27-.32,4.88,0,.2-.02.4-.02.6,0,.54-.02,1.02-.03,1.41-.02.78,0,1.23,0,1.23,0,0-.02.29-.05.78-.03.49-.08,1.17-.12,1.96-.1,1.58-.16,3.57-.24,5.23-.05,5.62-.99,3.54-1.72.05-.02.19-.36-1.9-.6-4.05-.24-2.15-.37-4.37-.37-4.37,0,0,0-.46.02-1.25,0-.2,0-.42,0-.66,0-.12,0-.25.01-.38v-.2c.03-.59.05-1.18.08-1.77.05-.78.09-1.57.16-2.36.51-6.35,1.77-13.06,4.13-19.84,2.36-6.78,5.94-13.42,9.91-20.05,1.98-3.32,4.06-6.67,6.17-10.07,2.11-3.4,4.25-6.89,6.55-10.39,2.29-3.5,4.77-7,7.49-10.39,1.36-1.66,2.73-3.33,4.11-5.02,1.35-1.68,2.68-3.41,4.02-5.16,5.34-6.98,10.69-14.46,17.52-21.04,1.51-1.43,2.73-3.26,3.59-5.22.22-.49.4-.99.56-1.5.15-.48.26-.96.32-1.45.13-.98.07-1.98-.17-2.88-.5-1.82-1.89-3.06-3.82-3.4-.94-.19-1.97-.15-2.96.04-.98.2-1.97.6-2.92,1.13-1.92,1.05-3.69,2.58-5.57,4.15-1.86,1.56-3.73,3.13-5.61,4.7-3.76,3.14-7.54,6.31-11.35,9.5-3.8,3.12-7.57,6.63-12.34,9.05-2.38,1.18-5.06,2.08-7.91,2.1-2.85.04-5.69-.88-8.02-2.44-2.33-1.58-4.17-3.65-5.69-5.81-1.55-2.17-2.82-4.4-4.12-6.63-2.6-4.53-4.65-9.53-5.47-14.86-.4-2.66-.51-5.4-.14-8.11.37-2.7,1.1-5.37,2.23-7.85,2.3-4.96,5.93-9.14,10.16-12.43,2.13-1.66,4.46-3.05,6.81-4.23,1.17-.6,2.35-1.15,3.43-1.72.52-.29,1.04-.58,1.39-.87.43-.31.47-.51.49-.59.03-.08-.02-.34-.25-.67-.22-.34-.62-.69-1.03-1.02-.87-.66-1.91-1.21-3-1.66-1.09-.45-2.25-.78-3.4-1-.57-.13-1.16-.14-1.75-.2-.58-.05-1.17-.12-1.77-.06-4.77.1-9.47,2.03-13.59,4.61-4.07,2.71-7.73,6.15-10.41,10.2-2.66,4.02-4.55,8.66-4.65,13.33-.06,2.32.38,4.82.39,7.49.03,2.65-.34,5.28-.89,7.79-1.13,5.22-3.8,9.7-6.06,13.99-2.34,4.27-4.01,8.67-5.14,13.3-2.24,9.24-2.64,18.82-3.51,28.15-.79,9.33-1.57,18.47-2.32,27.38-1.21,14.33-2.37,27.91-3.43,40.49-.23,2.73-.39,4.59-.4,4.69Z"/>
          <path d="M272.08,273.92c0,.07.01.1-.05.21-.35.73-1.35,1.86-2.88.41-.03-.03-.13-.16-.15-.23-.01-.1-.24-1.98-.58-4.75-.14-1.2-.27-2.42-.42-3.67-.47-4.15-.92-8.38-1.35-12.68-.87-8.6-1.7-17.48-2.51-26.61-.8-9.12-1.58-18.49-2.33-28.06-.18-2.39-.36-4.8-.54-7.22-.08-1.23-.16-2.45-.25-3.69-.05-.72-.03-1.21-.07-1.79-.03-.56-.09-1.14-.17-1.71-.31-2.3-.91-4.63-1.56-6.99-.64-2.37-1.28-4.76-1.93-7.15-.68-2.33-1.49-4.62-2.5-6.8-.51-1.09-1.07-2.16-1.68-3.19-.31-.51-.63-1.02-.97-1.52-.33-.5-.73-1.09-1.07-1.65-1.4-2.3-2.41-4.88-2.97-7.5-.58-2.62-.78-5.24-.98-7.8-.37-5.09-.81-10.19-1.44-15.27-.16-1.27-.33-2.54-.52-3.81-.2-1.25-.37-2.62-.69-3.52-.34-1-.96-1.97-1.71-2.87-.74-.9-1.62-1.75-2.57-2.52-1.89-1.57-4.06-2.9-6.29-4.1-2.24-1.21-4.58-2.28-6.97-3.26-2.38-.98-4.82-1.87-7.28-2.67-2.45-.79-4.99-1.55-7.42-2.08l-.42-.08c-.15-.03-.14-.01-.24-.02-.17.01-.38.03-.61.1-.46.12-.96.33-1.43.6-.95.54-1.82,1.3-2.39,2.15-.57.85-.83,1.76-.65,2.59.16.84.73,1.71,1.56,2.46.82.76,1.85,1.4,2.93,1.97l3.54,1.72c2.4,1.21,4.76,2.5,7.05,3.93,2.29,1.45,4.52,3,6.58,4.89.52.47,1.02.97,1.5,1.51l.18.21c.05.06.12.14.23.29.2.25.39.51.57.78.14.12.04.31.06.46,0,.16-.01.32-.02.48l-.05.64-.29,3.98c-.49,5.3-1.14,10.61-2.33,15.83-1.23,5.21-2.87,10.4-5.69,15.13l-1.15,1.72c-.2.28-.37.58-.58.85l-.67.8c-.46.53-.89,1.07-1.37,1.58l-1.56,1.42c-2.17,1.76-4.67,3.26-7.42,3.93l-.5.16-.52.09-1.04.18-1.04.18c-.35.06-.69.04-1.04.07-.7.03-1.38.07-2.08.08-.75-.08-1.53-.1-2.23-.32-2.87-.71-5.24-2.15-7.42-3.68-4.33-3.12-8.02-6.76-11.67-10.33-3.63-3.58-7.14-7.21-10.83-10.48-1.84-1.63-3.73-3.19-5.71-4.46-.99-.62-2-1.22-3.03-1.6-1.02-.44-2.05-.64-2.99-.63-.96-.04-1.76.38-2.53.9-.36.32-.75.61-1.02,1.03-.35.36-.54.8-.77,1.22-.77,1.73-.55,3.9.2,5.97.76,2.08,1.93,4.1,3.23,6.01,1.3,1.92,2.77,3.75,4.28,5.53,6.09,7.14,13.01,13.29,19.33,19.94.79.84,1.56,1.71,2.3,2.62.36.48.74.92,1.08,1.45.37.54.66,1.02.93,1.49,1.14,1.92,2.27,3.82,3.4,5.71,2.25,3.77,4.46,7.49,6.63,11.15,4.36,7.29,8.59,14.34,12.77,20.99,1.05,1.65,2.1,3.3,3.17,4.83.27.39.54.78.78,1.06l.94,1.2c.39.47.59.92.86,1.38.28.46.49.91.69,1.37,1.64,3.63,2.65,7.21,3.61,10.72.94,3.51,1.73,6.94,2.46,10.28.35,1.67.7,3.32,1.04,4.94.04.2.08.41.12.6.11.55.2,1.02.28,1.41.15.78.24,1.23.24,1.23,0,0,.59,4.72.71,8.07.33,5.67-.74,3.56-1.71.2,0,.19-.51-1.84-1.04-3.9-.53-2.06-1.07-4.17-1.07-4.17,0,0-.09-.44-.24-1.2-.3-1.44-.66-3.18-1.07-5.19-.65-3.07-1.38-6.23-2.19-9.46-.83-3.22-1.73-6.52-2.92-9.75-.59-1.6-1.29-3.21-2.12-4.52l-.32-.42c-.11-.14-.19-.27-.39-.5-.33-.41-.69-.85-.94-1.22-.55-.78-1.08-1.56-1.59-2.35-2.06-3.15-4.05-6.39-6.09-9.71-4.06-6.65-8.22-13.61-12.5-20.82-2.14-3.6-4.32-7.27-6.54-10.99-1-1.64-2.46-3.23-3.92-4.8-1.49-1.57-3.05-3.13-4.63-4.69-3.16-3.13-6.42-6.29-9.6-9.64-3.17-3.35-6.33-6.84-9.09-10.81-1.37-1.99-2.65-4.1-3.59-6.49-.48-1.18-.81-2.47-1.01-3.81-.1-1.36-.12-2.82.4-4.2.17-.72.6-1.33.93-1.98.21-.29.44-.57.66-.85.22-.28.44-.57.74-.79,1.01-1.03,2.46-1.75,3.95-2.06,1.52-.23,2.99-.02,4.31.39.66.2,1.27.48,1.89.74.58.31,1.19.59,1.73.93,4.43,2.68,8.01,6.17,11.6,9.61,3.57,3.47,7.02,7.06,10.65,10.44,1.81,1.69,3.66,3.33,5.6,4.83,1.93,1.49,3.97,2.85,6.1,3.7l.8.3c.27.09.53.14.8.21.54.17,1.05.17,1.57.24.56.02,1.17-.04,1.75-.06l.89-.04.87-.15c2.34-.29,4.53-1.2,6.48-2.48,2-1.22,3.61-3.04,5.07-4.95.66-1.02,1.4-1.98,1.93-3.11l.87-1.63c.27-.56.49-1.14.74-1.71,1.93-4.59,3.13-9.55,4.01-14.57l.58-3.79c.17-1.27.29-2.55.44-3.82l.21-1.91.14-1.93.24-3.28c.16.18-.41-.48-.8-.87-.43-.43-.88-.84-1.34-1.25-.93-.81-1.94-1.56-2.96-2.3-2.06-1.46-4.25-2.77-6.5-3.99-1.12-.61-2.26-1.2-3.41-1.76l-1.73-.83c-.57-.29-1.24-.59-1.84-.93-1.23-.68-2.44-1.48-3.5-2.58-.54-.54-1.02-1.19-1.42-1.92-.38-.74-.65-1.59-.72-2.47-.15-1.79.59-3.45,1.54-4.68.96-1.25,2.16-2.18,3.51-2.9.69-.35,1.41-.64,2.27-.8.42-.08.9-.12,1.44-.06.43.06.75.13,1.09.2,1.33.3,2.6.64,3.87,1,5.06,1.47,10.01,3.26,14.8,5.47,2.39,1.12,4.73,2.36,6.99,3.79,2.24,1.46,4.42,3.09,6.24,5.26.91,1.07,1.72,2.31,2.25,3.72.15.34.26.71.34,1.09.09.38.18.76.22,1.06l.31,1.92c.39,2.56.71,5.11.98,7.66.28,2.55.5,5.09.72,7.63.22,2.54.36,5.08.61,7.52.26,2.44.67,4.8,1.48,6.99.39,1.1.89,2.15,1.47,3.16.28.51.6,1,.93,1.49.32.5.73,1.07,1.05,1.61,2.77,4.43,4.43,9.35,5.62,14.17,1.17,4.66,2.89,9.38,3.04,14.6.09,2.27.3,4.74.47,7.1.18,2.38.36,4.75.55,7.1.74,9.42,1.52,18.65,2.32,27.64.8,8.99,1.62,17.73,2.49,26.19.44,4.23.88,8.39,1.35,12.47.08.72.16,1.43.24,2.12.33,2.71.56,4.56.57,4.66Z"/>
          <path d="M81.12,166.95c-.05.06-.06.08-.19.11-.77.27-2.27.34-2.31-1.77,0-.04.02-.21.05-.27l3.19-4.05.78-.97,1.78-2.26s.76-.83,1.87-2.04c1.05-1.15,2.28-2.61,3-3.98.6-1.17.76-2.02.92-2.53.13-.51.27-.68.44-.55.16.13.35.58.45,1.26.08.68.03,1.58-.22,2.51.05-.09-.07.43-.39,1.2-.31.77-.83,1.78-1.42,2.73-.59.95-1.23,1.86-1.68,2.52-.46.67-.77,1.12-.77,1.12l-1.53,1.94-.77.98-3.19,4.05Z"/>
          <path d="M208.22,133.1c-.06-.04-.09-.06-.13-.17-.34-.74-.57-2.22,1.53-2.48.04,0,.21,0,.27.02l4.35,2.77,2.89,1.85,2.43,1.54s3.82,2.81,6.37,4.99c4.4,3.58,2.13,2.95-1.02,1.39.27.25-7.36-3.98-7.36-3.98l-2.08-1.32-2.9-1.84-4.35-2.77Z"/>
        </g>
        <path class="cls-12" d="M37.67,154.91c0,.06,0,.08-.05.17-.31.57-1.16,1.43-2.32.2-.02-.02-.1-.13-.11-.19,0-.08-.11-1.59-.27-3.81-1.5-20.7-3.24-44.72-5.1-70.36-1.01-13.91-2.05-28.27-3.1-42.84l-.05-.69-.02-.79c.03-.53.07-1.06.18-1.58.21-1.04.61-2.04,1.16-2.95,1.1-1.82,2.9-3.2,4.93-3.84.51-.17,1.03-.27,1.56-.35l.8-.07.7-.03,2.76-.1c1.84-.07,3.68-.13,5.53-.2,7.38-.27,14.78-.54,22.18-.8,96.19-3.49,191.72-6.95,191.72-6.95,0,0,3.79.12,6.46.4,4.52.37,2.74.98-.04,1.38.29.04-6.66.71-6.66.71,0,0-96.99,3.52-194.67,7.06-7.3.26-14.6.53-21.87.79-1.82.07-3.64.13-5.45.2-.48,0-.84.05-1.22.08-.38.07-.75.14-1.11.27-.72.24-1.4.61-1.99,1.08-1.21.94-2.03,2.32-2.33,3.8-.09.37-.11.75-.13,1.13v.57c.02.2.04.44.06.66l.2,2.7c1.04,14.37,2.07,28.52,3.06,42.24,1.81,24.91,3.5,48.24,4.95,68.36.16,2.19.27,3.67.27,3.76Z"/>
        <path class="cls-12" d="M261.44,166.64c0,.06,0,.08-.07.16-.38.53-1.32,1.27-2.33-.09-.02-.02-.08-.14-.09-.2l.21-4.12,6.47-126.82s.45-3.77.96-6.4c.76-4.47,1.22-2.65,1.37.16.07-.29.13,6.69.13,6.69l-6.45,126.49-.21,4.12Z"/>
        <path class="cls-12" d="M82.9,239.58c-.06,0-.08,0-.16-.06-.55-.35-1.34-1.26-.03-2.33.02-.02.14-.09.2-.1h4.13s113.78.24,113.78.24c0,0,3.78.26,6.44.65,4.5.54,2.7,1.08-.09,1.38.29.05-6.68.46-6.68.46l-113.45-.22h-4.13Z"/>
      </g>
      <g>
        <path d="M197,19.66c-1.17-1.13-3.12-1.34-5.53-.34-4.51,1.87-8.89,7.22-9.79,11.96-.45,2.36.06,4.12,1.24,5.07,0,0,0,0-.01,0l26.16,21.05c.22.17.46.31.72.43,0,0,0,0,.01,0,.16.07.32.13.5.18.02,0,.03,0,.05.01.16.04.33.08.51.1.03,0,.07,0,.1.01.16.02.33.03.51.03.06,0,.12,0,.18,0,.16,0,.31,0,.48-.03.09,0,.19-.03.28-.04.14-.02.28-.04.43-.07.14-.03.28-.07.42-.11.11-.03.22-.06.34-.09.26-.08.53-.18.8-.29,4.5-1.87,8.89-7.22,9.79-11.96.39-2.06.05-3.66-.82-4.66-.12-.14-.26-.27-.41-.39l-12.29-9.89h0s-4.8-3.86-4.8-3.86c-.01-.01-.03-.03-.04-.04l-5.39-4.33s.02.02.03.03l-3.67-2.96c.07.06.14.13.21.2ZM187.15,36.84c.08-.02.16-.04.25-.06-.08.03-.16.04-.25.06ZM186.34,37.03c.09-.02.18-.02.27-.04-.09.02-.18.03-.27.04ZM198.16,22.52c0-.13,0-.27-.03-.4.02.13.02.27.03.4ZM197.37,20.08c-.06-.08-.11-.17-.18-.24.07.07.12.16.18.24ZM198.07,21.79c-.02-.11-.04-.23-.06-.34.03.11.04.23.06.34ZM197.91,21.15c-.03-.1-.06-.21-.1-.3.04.1.07.2.1.3ZM197.67,20.58c-.05-.09-.09-.19-.14-.27.05.09.09.18.14.27ZM198.18,22.86c0,.17-.01.35-.02.52.01-.18.03-.35.02-.52ZM198.14,23.66c-.03.28-.07.56-.12.86.06-.3.1-.58.12-.86ZM185.86,37.1c-.1,0-.19,0-.29,0,.1,0,.19,0,.29,0ZM183.39,36.66c-.09-.05-.16-.11-.24-.16.08.05.16.11.24.16ZM185.17,37.12c-.1,0-.19-.02-.28-.03.09,0,.18.03.28.03ZM184.52,37.05c-.09-.02-.18-.05-.27-.07.09.02.18.05.27.07ZM183.93,36.9c-.09-.03-.17-.08-.26-.11.09.04.17.08.26.11Z"/>
        <path class="cls-11" d="M191.77,22.53c-.56-.67-1.57-.83-2.86-.3-2.25.93-4.44,3.6-4.88,5.97-.22,1.18.03,2.06.62,2.53,0,0,0,0,0,0h.01s0,0,0,.01l1.79,1.45c.59.48,1.52.54,2.65.07,2.25-.93,4.43-3.6,4.88-5.97.22-1.17-.03-2.05-.61-2.52l-1.8-1.46c.08.06.14.15.2.23ZM185.16,31c-.07-.02-.13-.07-.19-.1.07.03.12.08.19.1ZM185.77,31.11c-.08,0-.15-.03-.23-.04.08.01.15.04.23.04ZM186.26,31.06c.08-.01.15,0,.23-.02-.08.02-.15.01-.23.02ZM192.26,24c0,.25-.02.53-.08.82.06-.29.08-.57.08-.82ZM192.22,23.66c-.01-.12-.02-.25-.04-.36.03.11.03.24.04.36ZM191.94,22.73c.05.08.08.19.12.29-.04-.1-.07-.2-.12-.29Z"/>
      </g>
      <g>
        <path d="M232.04,2.16c-.73-1.45-2.5-2.29-5.11-2.14-4.88.28-10.78,3.89-13.18,8.07-1.2,2.08-1.3,3.91-.5,5.19,0,0,0,0,0-.01l17.77,28.5c.15.24.33.45.54.64,0,0,0,0,.01,0,.13.12.26.23.41.33.01,0,.03.02.04.03.14.1.29.19.45.27.03.02.06.03.09.04.15.07.3.14.47.2.05.02.11.04.17.05.15.05.3.1.46.13.09.02.18.03.28.05.14.03.28.05.43.07.14.02.28.02.43.03.12,0,.23.02.35.03.27,0,.56,0,.85-.01,4.87-.28,10.78-3.89,13.18-8.07,1.05-1.82,1.26-3.44.76-4.67-.07-.18-.16-.34-.25-.5l-8.34-13.38h0s-3.26-5.23-3.26-5.23c0-.02-.02-.03-.02-.05l-3.66-5.87s.01.02.02.04l-2.5-4c.05.08.09.17.13.26ZM217.08,15.14c.09,0,.17.02.25.02-.09,0-.17-.01-.25-.02ZM216.25,15.05c.09.02.17.04.27.05-.09-.01-.18-.03-.27-.05ZM232.18,5.25c.04-.13.08-.26.11-.39-.03.13-.07.26-.11.39ZM232.24,2.68c-.03-.1-.05-.2-.09-.29.04.09.06.19.09.29ZM232.34,4.52c.02-.11.04-.23.05-.34,0,.11-.03.23-.05.34ZM232.4,3.86c0-.11.01-.22,0-.32,0,.1,0,.21,0,.32ZM232.37,3.25c-.01-.1-.02-.21-.04-.3.02.1.03.2.04.3ZM232.09,5.57c-.05.16-.13.32-.19.48.07-.16.14-.33.19-.48ZM231.8,6.31c-.12.25-.25.51-.4.77.15-.26.28-.52.4-.77ZM215.78,14.96c-.1-.02-.18-.06-.27-.09.09.03.18.06.27.09ZM213.59,13.73c-.07-.07-.12-.15-.18-.23.06.08.11.16.18.23ZM215.11,14.75c-.09-.04-.17-.08-.26-.12.09.04.17.08.26.12ZM214.52,14.47c-.08-.05-.15-.1-.23-.15.08.05.15.11.23.15ZM214.01,14.13c-.08-.06-.14-.13-.21-.19.07.06.13.13.21.19Z"/>
        <path class="cls-11" d="M226.16,3.15c-.31-.81-1.21-1.3-2.6-1.23-2.43.14-5.37,1.94-6.58,4.03-.6,1.04-.65,1.95-.25,2.59,0,0,0,0,0,0h0s0,.01,0,.01l1.21,1.96c.4.65,1.26,1.01,2.48.94,2.43-.14,5.37-1.94,6.57-4.03.6-1.04.65-1.94.25-2.58l-1.22-1.97c.05.09.08.19.11.29ZM217.12,8.97c-.06-.05-.1-.11-.15-.16.05.05.09.12.15.16ZM217.67,9.27c-.08-.03-.13-.08-.2-.11.07.04.13.08.2.11ZM218.14,9.39c.08.02.14.04.22.06-.08-.01-.15-.04-.22-.06ZM226.13,4.7c-.08.24-.2.49-.35.75.15-.26.26-.51.35-.75ZM226.21,4.36c.03-.12.07-.25.08-.36,0,.11-.05.24-.08.36ZM226.25,3.39c.02.1.01.21.02.31,0-.1,0-.22-.02-.31Z"/>
      </g>
      <g>
        <path class="cls-9" d="M39.6,71.26c26.08-3.31,22.06-2.52,40.09-5.29,2.07-.32,5.01-1.38,6.65-2.63,2.86-2.47.06-3.19-2.87-3.03-6.74.3-14.03.64-20.53,1.33-9.81,1.33-19.13,2.13-29,2.97"/>
        <path class="cls-7" d="M65.44,64.44c2.27-.55,4.61-.58,6.92-.84,1.3-.14,1.29-2.19-.02-2.04-2.49.29-5.01.32-7.46.92-1.29.31-.72,2.28.56,1.97Z"/>
        <path class="cls-9" d="M60.58,73.85c5.44,1.52,10.28,2.39,15.76,3.62,3.79.92,13.46,2.56,10.47-.2l-54.34-19.16.48,8.13c9.04,3.6,18.44,4.88,27.62,7.61Z"/>
        <path class="cls-8" d="M9.14,82.05c10.1,4.29,25.35-3.77,31.7-10.94-2.97-2.45-4.98-4.67-5.89-9.13l-1.13-.06c-5.44-1.52-12.4.23-18.06.16-5.54.13-10.9.93-13.38,6.6-2.39,5.09,1.85,11.28,6.77,13.37ZM30.85,70.78c2.49,7.27-17.04,9.55-21.87,3.2-7.39-9.57,19.61-9.82,21.87-3.2Z"/>
        <path class="cls-8" d="M1.19,57.54c2.93,4.58,8.71,6.68,12.9,6.84,1.47-.08,2.89.14,4.24-.14l16.62-2c-2.07-7.64-6.46-12.94-9.2-15.01-5.19-4.04-12.68-5.4-18.27-3.15-4.03,1.59-10.08,7.81-6.3,13.46ZM23.77,54.44c.21,5.31-14.11,7.57-16.61,1.15-3.22-8.36,16.27-9.57,16.61-1.15Z"/>
        <path class="cls-7" d="M21.27,48.04c2.56.9,4.46,2.57,6.03,4.74.77,1.05,2.53,0,1.75-1.06-1.92-2.63-4.18-4.57-7.28-5.66-1.25-.44-1.75,1.55-.51,1.98Z"/>
        <path class="cls-7" d="M16.65,46.47s0,0,.02,0h0s0,0,0,0c.03,0,.08,0,.1.01.13.03.26.06.39.09.53.16,1.11-.21,1.25-.73.14-.56-.21-1.08-.74-1.24-.33-.11-.67-.16-1.01-.18-.56-.04-1.02.51-1.02,1.03,0,.57.46.96,1.01,1.01Z"/>
        <path d="M63.4,67.28c-4.62-1.08-9.14-2.52-13.53-4.31-.6-.25-1.33.27-1.49.84-.19.69.24,1.24.84,1.49,4.39,1.8,8.91,3.24,13.53,4.31,1.51.35,2.16-1.98.64-2.33h0Z"/>
      </g>
    </g>
  </g>
</svg>