<svg width="129" height="145" viewBox="0 0 129 145" fill="none" xmlns="http://www.w3.org/2000/svg">
<g clip-path="url(#clip0_98_56)">
<path d="M142.513 44.8092C138.822 35.9144 133.436 27.4551 126.724 20.7547C120.013 14.0543 110.818 10.411 101.908 6.72578C93.3091 3.16619 84.2988 0.929932 74.4244 0.929932C64.55 0.929932 54.7428 1.25658 46.152 4.81616C37.2424 8.50139 29.5493 14.7579 22.8377 21.4583C16.1261 28.1587 11.8391 36.6598 8.14776 45.5546C4.57385 54.1311 0.219727 63.1013 0.219727 72.9676C0.219727 82.834 2.45132 92.6752 6.00845 101.26C9.69981 110.155 15.5724 118.313 22.284 125.021C28.9955 131.73 37.0746 137.819 45.9842 141.504C54.575 145.064 64.5417 144.93 74.416 144.93C84.2904 144.93 93.7286 143.791 102.319 140.231C111.229 136.546 119.853 131.739 126.565 125.038C133.276 118.338 136.884 109.225 140.575 100.33C144.141 91.7539 147.211 82.834 147.211 72.9676C147.211 63.1013 146.07 53.3857 142.505 44.8092H142.513ZM86.22 49.6251C90.9768 51.4342 91.6564 58.2184 87.3777 60.9655C83.376 63.7797 77.4362 60.8399 77.3272 55.9402V55.823C77.0503 51.3253 82.0756 47.816 86.22 49.6167V49.6251ZM67.1759 50.7642C71.9328 52.5733 72.6123 59.3574 68.3337 62.1046C64.3319 64.9188 58.3922 61.979 58.2831 57.0793V56.962C58.0063 52.4644 63.0316 48.9551 67.1759 50.7558V50.7642ZM105.138 71.7448C104.257 75.7315 102.37 79.6178 100.155 82.9763C90.4567 98.2281 68.2498 100.984 54.1639 90.2044C46.8483 84.7101 42.7291 75.7902 42.0663 66.7446C41.8314 63.83 42.2173 61.1414 43.2325 59.1145C44.9775 55.5215 47.8383 54.4159 50.095 57.0625C55.1539 63.8383 53.0733 71.4349 61.8738 77.1219C70.1206 82.6665 83.8626 82.3314 90.4399 74.3663C92.6631 71.7783 94.0977 68.537 96.1615 65.8652L96.2202 65.7898C102.202 57.6153 106.673 64.6507 105.138 71.7532V71.7448Z" fill="#1FAEA1"/>
</g>
<defs>
<clipPath id="clip0_98_56">
<rect width="147" height="144" fill="white" transform="translate(0.219727 0.929932)"/>
</clipPath>
</defs>
</svg>
